<?xml version="1.0" encoding="UTF-8" standalone="no"?>
<!DOCTYPE svg PUBLIC "-//W3C//DTD SVG 1.1//EN"
 "http://www.w3.org/Graphics/SVG/1.1/DTD/svg11.dtd">
<!-- Generated by graphviz version 2.47.0 (20210316.0004)
 -->
<!-- Title: dependencies Pages: 1 -->
<svg width="731pt" height="211pt"
 viewBox="0.00 0.00 731.00 211.00" xmlns="http://www.w3.org/2000/svg" xmlns:xlink="http://www.w3.org/1999/xlink">
<g id="graph0" class="graph" transform="scale(1 1) rotate(0) translate(4 207)">
<title>dependencies</title>
<polygon fill="white" stroke="transparent" points="-4,4 -4,-207 727,-207 727,4 -4,4"/>
<text text-anchor="start" x="340.51" y="-42.4" font-family="Times-12" font-weight="bold" font-size="14.00">Legend</text>
<polygon fill="#ffffb3" stroke="transparent" points="127.5,-10 127.5,-30 147.5,-30 147.5,-10 127.5,-10"/>
<text text-anchor="start" x="151.13" y="-15.4" font-family="Times-12" font-size="14.00"> &#160;Declarations</text>
<polygon fill="#8dd3c7" stroke="transparent" points="240.5,-10 240.5,-30 260.5,-30 260.5,-10 240.5,-10"/>
<text text-anchor="start" x="264.23" y="-15.4" font-family="Times-12" font-size="14.00"> &#160;Module</text>
<polygon fill="#80b1d3" stroke="transparent" points="326.5,-10 326.5,-30 346.5,-30 346.5,-10 326.5,-10"/>
<text text-anchor="start" x="350.28" y="-15.4" font-family="Times-12" font-size="14.00"> &#160;Bootstrap</text>
<polygon fill="#fdb462" stroke="transparent" points="423.5,-10 423.5,-30 443.5,-30 443.5,-10 423.5,-10"/>
<text text-anchor="start" x="447.17" y="-15.4" font-family="Times-12" font-size="14.00"> &#160;Providers</text>
<polygon fill="#fb8072" stroke="transparent" points="519.5,-10 519.5,-30 539.5,-30 539.5,-10 519.5,-10"/>
<text text-anchor="start" x="543.23" y="-15.4" font-family="Times-12" font-size="14.00"> &#160;Exports</text>
<g id="clust1" class="cluster">
<title>cluster_ClientModule</title>
<polygon fill="none" stroke="black" stroke-dasharray="1,5" points="8,-70 8,-195 715,-195 715,-70 8,-70"/>
</g>
<g id="clust5" class="cluster">
<title>cluster_ClientModule_imports</title>
<polygon fill="none" stroke="black" points="311,-78 311,-130 707,-130 707,-78 311,-78"/>
</g>
<g id="clust2" class="cluster">
<title>cluster_ClientModule_declarations</title>
<polygon fill="none" stroke="black" points="16,-78 16,-130 303,-130 303,-78 16,-78"/>
</g>
<!-- ProfileCComponent -->
<g id="node1" class="node">
<title>ProfileCComponent</title>
<polygon fill="#ffffb3" stroke="black" points="295.27,-122 166.73,-122 166.73,-86 295.27,-86 295.27,-122"/>
<text text-anchor="middle" x="231" y="-99.8" font-family="Times,serif" font-size="14.00">ProfileCComponent</text>
</g>
<!-- ClientModule -->
<g id="node3" class="node">
<title>ClientModule</title>
<polygon fill="#8dd3c7" stroke="black" points="412.77,-187 409.77,-191 388.77,-191 385.77,-187 319.23,-187 319.23,-151 412.77,-151 412.77,-187"/>
<text text-anchor="middle" x="366" y="-164.8" font-family="Times,serif" font-size="14.00">ClientModule</text>
</g>
<!-- ProfileCComponent&#45;&gt;ClientModule -->
<g id="edge1" class="edge">
<title>ProfileCComponent&#45;&gt;ClientModule</title>
<path fill="none" stroke="black" d="M231,-122.02C231,-139.37 231,-163 231,-163 231,-163 309.16,-163 309.16,-163"/>
<polygon fill="black" stroke="black" points="309.16,-166.5 319.16,-163 309.16,-159.5 309.16,-166.5"/>
</g>
<!-- HomeCComponent -->
<g id="node2" class="node">
<title>HomeCComponent</title>
<polygon fill="#ffffb3" stroke="black" points="148.38,-122 23.62,-122 23.62,-86 148.38,-86 148.38,-122"/>
<text text-anchor="middle" x="86" y="-99.8" font-family="Times,serif" font-size="14.00">HomeCComponent</text>
</g>
<!-- HomeCComponent&#45;&gt;ClientModule -->
<g id="edge2" class="edge">
<title>HomeCComponent&#45;&gt;ClientModule</title>
<path fill="none" stroke="black" d="M86,-122.28C86,-143.32 86,-175 86,-175 86,-175 309.13,-175 309.13,-175"/>
<polygon fill="black" stroke="black" points="309.13,-178.5 319.13,-175 309.13,-171.5 309.13,-178.5"/>
</g>
<!-- CommonModule -->
<g id="node4" class="node">
<title>CommonModule</title>
<polygon fill="#8dd3c7" stroke="black" points="698.67,-122 695.67,-126 674.67,-126 671.67,-122 587.33,-122 587.33,-86 698.67,-86 698.67,-122"/>
<text text-anchor="middle" x="643" y="-99.8" font-family="Times,serif" font-size="14.00">CommonModule</text>
</g>
<!-- CommonModule&#45;&gt;ClientModule -->
<g id="edge3" class="edge">
<title>CommonModule&#45;&gt;ClientModule</title>
<path fill="none" stroke="black" d="M643,-122.28C643,-143.32 643,-175 643,-175 643,-175 422.99,-175 422.99,-175"/>
<polygon fill="black" stroke="black" points="422.99,-171.5 412.99,-175 422.99,-178.5 422.99,-171.5"/>
</g>
<!-- ClientRoutingModule -->
<g id="node5" class="node">
<title>ClientRoutingModule</title>
<polygon fill="#8dd3c7" stroke="black" points="569.39,-122 566.39,-126 545.39,-126 542.39,-122 430.61,-122 430.61,-86 569.39,-86 569.39,-122"/>
<text text-anchor="middle" x="500" y="-99.8" font-family="Times,serif" font-size="14.00">ClientRoutingModule</text>
</g>
<!-- ClientRoutingModule&#45;&gt;ClientModule -->
<g id="edge4" class="edge">
<title>ClientRoutingModule&#45;&gt;ClientModule</title>
<path fill="none" stroke="black" d="M500,-122.02C500,-139.37 500,-163 500,-163 500,-163 422.87,-163 422.87,-163"/>
<polygon fill="black" stroke="black" points="422.87,-159.5 412.87,-163 422.87,-166.5 422.87,-159.5"/>
</g>
<!-- HomeModule -->
<g id="node6" class="node">
<title>HomeModule</title>
<polygon fill="#8dd3c7" stroke="black" points="412.76,-122 409.76,-126 388.76,-126 385.76,-122 319.24,-122 319.24,-86 412.76,-86 412.76,-122"/>
<text text-anchor="middle" x="366" y="-99.8" font-family="Times,serif" font-size="14.00">HomeModule</text>
</g>
<!-- HomeModule&#45;&gt;ClientModule -->
<g id="edge5" class="edge">
<title>HomeModule&#45;&gt;ClientModule</title>
<path fill="none" stroke="black" d="M366,-122.11C366,-122.11 366,-140.99 366,-140.99"/>
<polygon fill="black" stroke="black" points="362.5,-140.99 366,-150.99 369.5,-140.99 362.5,-140.99"/>
</g>
</g>
</svg>
