<?xml version="1.0" encoding="UTF-8" standalone="no"?>
<!DOCTYPE svg PUBLIC "-//W3C//DTD SVG 1.1//EN"
 "http://www.w3.org/Graphics/SVG/1.1/DTD/svg11.dtd">
<!-- Generated by graphviz version 2.47.0 (20210316.0004)
 -->
<!-- Title: dependencies Pages: 1 -->
<svg width="2356pt" height="211pt"
 viewBox="0.00 0.00 2356.00 211.00" xmlns="http://www.w3.org/2000/svg" xmlns:xlink="http://www.w3.org/1999/xlink">
<g id="graph0" class="graph" transform="scale(1 1) rotate(0) translate(4 207)">
<title>dependencies</title>
<polygon fill="white" stroke="transparent" points="-4,4 -4,-207 2352,-207 2352,4 -4,4"/>
<text text-anchor="start" x="1153.01" y="-42.4" font-family="Times-12" font-weight="bold" font-size="14.00">Legend</text>
<polygon fill="#ffffb3" stroke="transparent" points="940,-10 940,-30 960,-30 960,-10 940,-10"/>
<text text-anchor="start" x="963.63" y="-15.4" font-family="Times-12" font-size="14.00"> &#160;Declarations</text>
<polygon fill="#8dd3c7" stroke="transparent" points="1053,-10 1053,-30 1073,-30 1073,-10 1053,-10"/>
<text text-anchor="start" x="1076.73" y="-15.4" font-family="Times-12" font-size="14.00"> &#160;Module</text>
<polygon fill="#80b1d3" stroke="transparent" points="1139,-10 1139,-30 1159,-30 1159,-10 1139,-10"/>
<text text-anchor="start" x="1162.78" y="-15.4" font-family="Times-12" font-size="14.00"> &#160;Bootstrap</text>
<polygon fill="#fdb462" stroke="transparent" points="1236,-10 1236,-30 1256,-30 1256,-10 1236,-10"/>
<text text-anchor="start" x="1259.67" y="-15.4" font-family="Times-12" font-size="14.00"> &#160;Providers</text>
<polygon fill="#fb8072" stroke="transparent" points="1332,-10 1332,-30 1352,-30 1352,-10 1332,-10"/>
<text text-anchor="start" x="1355.73" y="-15.4" font-family="Times-12" font-size="14.00"> &#160;Exports</text>
<g id="clust1" class="cluster">
<title>cluster_AuthModule</title>
<polygon fill="none" stroke="black" stroke-dasharray="1,5" points="8,-70 8,-195 2340,-195 2340,-70 8,-70"/>
</g>
<g id="clust2" class="cluster">
<title>cluster_AuthModule_declarations</title>
<polygon fill="none" stroke="black" points="826,-78 826,-130 2332,-130 2332,-78 826,-78"/>
</g>
<g id="clust12" class="cluster">
<title>cluster_AuthModule_imports</title>
<polygon fill="none" stroke="black" points="16,-78 16,-130 818,-130 818,-78 16,-78"/>
</g>
<!-- LoginComponent -->
<g id="node1" class="node">
<title>LoginComponent</title>
<polygon fill="#ffffb3" stroke="black" points="2324.28,-122 2209.72,-122 2209.72,-86 2324.28,-86 2324.28,-122"/>
<text text-anchor="middle" x="2267" y="-99.8" font-family="Times,serif" font-size="14.00">LoginComponent</text>
</g>
<!-- AuthModule -->
<g id="node10" class="node">
<title>AuthModule</title>
<polygon fill="#8dd3c7" stroke="black" points="1147.55,-187 1144.55,-191 1123.55,-191 1120.55,-187 1060.45,-187 1060.45,-151 1147.55,-151 1147.55,-187"/>
<text text-anchor="middle" x="1104" y="-164.8" font-family="Times,serif" font-size="14.00">AuthModule</text>
</g>
<!-- LoginComponent&#45;&gt;AuthModule -->
<g id="edge1" class="edge">
<title>LoginComponent&#45;&gt;AuthModule</title>
<path fill="none" stroke="black" d="M2267,-122.32C2267,-145.66 2267,-183 2267,-183 2267,-183 1157.82,-183 1157.82,-183"/>
<polygon fill="black" stroke="black" points="1157.82,-179.5 1147.82,-183 1157.82,-186.5 1157.82,-179.5"/>
</g>
<!-- RegisterComponent -->
<g id="node2" class="node">
<title>RegisterComponent</title>
<polygon fill="#ffffb3" stroke="black" points="2191.98,-122 2064.02,-122 2064.02,-86 2191.98,-86 2191.98,-122"/>
<text text-anchor="middle" x="2128" y="-99.8" font-family="Times,serif" font-size="14.00">RegisterComponent</text>
</g>
<!-- RegisterComponent&#45;&gt;AuthModule -->
<g id="edge2" class="edge">
<title>RegisterComponent&#45;&gt;AuthModule</title>
<path fill="none" stroke="black" d="M2128,-122.29C2128,-144.21 2128,-178 2128,-178 2128,-178 1157.67,-178 1157.67,-178"/>
<polygon fill="black" stroke="black" points="1157.67,-174.5 1147.67,-178 1157.67,-181.5 1157.67,-174.5"/>
</g>
<!-- LogoutComponent -->
<g id="node3" class="node">
<title>LogoutComponent</title>
<polygon fill="#ffffb3" stroke="black" points="2045.78,-122 1924.22,-122 1924.22,-86 2045.78,-86 2045.78,-122"/>
<text text-anchor="middle" x="1985" y="-99.8" font-family="Times,serif" font-size="14.00">LogoutComponent</text>
</g>
<!-- LogoutComponent&#45;&gt;AuthModule -->
<g id="edge3" class="edge">
<title>LogoutComponent&#45;&gt;AuthModule</title>
<path fill="none" stroke="black" d="M1985,-122.03C1985,-142.77 1985,-174 1985,-174 1985,-174 1157.69,-174 1157.69,-174"/>
<polygon fill="black" stroke="black" points="1157.69,-170.5 1147.69,-174 1157.69,-177.5 1157.69,-170.5"/>
</g>
<!-- CustomersignupComponent -->
<g id="node4" class="node">
<title>CustomersignupComponent</title>
<polygon fill="#ffffb3" stroke="black" points="1906.61,-122 1733.39,-122 1733.39,-86 1906.61,-86 1906.61,-122"/>
<text text-anchor="middle" x="1820" y="-99.8" font-family="Times,serif" font-size="14.00">CustomersignupComponent</text>
</g>
<!-- CustomersignupComponent&#45;&gt;AuthModule -->
<g id="edge4" class="edge">
<title>CustomersignupComponent&#45;&gt;AuthModule</title>
<path fill="none" stroke="black" d="M1820,-122.11C1820,-141.34 1820,-169 1820,-169 1820,-169 1157.71,-169 1157.71,-169"/>
<polygon fill="black" stroke="black" points="1157.71,-165.5 1147.71,-169 1157.71,-172.5 1157.71,-165.5"/>
</g>
<!-- ManufacturersignupComponent -->
<g id="node5" class="node">
<title>ManufacturersignupComponent</title>
<polygon fill="#ffffb3" stroke="black" points="1715.34,-122 1520.66,-122 1520.66,-86 1715.34,-86 1715.34,-122"/>
<text text-anchor="middle" x="1618" y="-99.8" font-family="Times,serif" font-size="14.00">ManufacturersignupComponent</text>
</g>
<!-- ManufacturersignupComponent&#45;&gt;AuthModule -->
<g id="edge5" class="edge">
<title>ManufacturersignupComponent&#45;&gt;AuthModule</title>
<path fill="none" stroke="black" d="M1618,-122.3C1618,-140.27 1618,-165 1618,-165 1618,-165 1157.82,-165 1157.82,-165"/>
<polygon fill="black" stroke="black" points="1157.82,-161.5 1147.82,-165 1157.82,-168.5 1157.82,-161.5"/>
</g>
<!-- LayoutauthComponent -->
<g id="node6" class="node">
<title>LayoutauthComponent</title>
<polygon fill="#ffffb3" stroke="black" points="1502.6,-122 1357.4,-122 1357.4,-86 1502.6,-86 1502.6,-122"/>
<text text-anchor="middle" x="1430" y="-99.8" font-family="Times,serif" font-size="14.00">LayoutauthComponent</text>
</g>
<!-- LayoutauthComponent&#45;&gt;AuthModule -->
<g id="edge6" class="edge">
<title>LayoutauthComponent&#45;&gt;AuthModule</title>
<path fill="none" stroke="black" d="M1430,-122.03C1430,-138.4 1430,-160 1430,-160 1430,-160 1157.63,-160 1157.63,-160"/>
<polygon fill="black" stroke="black" points="1157.63,-156.5 1147.63,-160 1157.63,-163.5 1157.63,-156.5"/>
</g>
<!-- OtpVerifComponent -->
<g id="node7" class="node">
<title>OtpVerifComponent</title>
<polygon fill="#ffffb3" stroke="black" points="1339.86,-122 1208.14,-122 1208.14,-86 1339.86,-86 1339.86,-122"/>
<text text-anchor="middle" x="1274" y="-99.8" font-family="Times,serif" font-size="14.00">OtpVerifComponent</text>
</g>
<!-- OtpVerifComponent&#45;&gt;AuthModule -->
<g id="edge7" class="edge">
<title>OtpVerifComponent&#45;&gt;AuthModule</title>
<path fill="none" stroke="black" d="M1274,-122.19C1274,-137.18 1274,-156 1274,-156 1274,-156 1157.78,-156 1157.78,-156"/>
<polygon fill="black" stroke="black" points="1157.78,-152.5 1147.78,-156 1157.78,-159.5 1157.78,-152.5"/>
</g>
<!-- ForgetPasswordComponent -->
<g id="node8" class="node">
<title>ForgetPasswordComponent</title>
<polygon fill="#ffffb3" stroke="black" points="1189.54,-122 1018.46,-122 1018.46,-86 1189.54,-86 1189.54,-122"/>
<text text-anchor="middle" x="1104" y="-99.8" font-family="Times,serif" font-size="14.00">ForgetPasswordComponent</text>
</g>
<!-- ForgetPasswordComponent&#45;&gt;AuthModule -->
<g id="edge8" class="edge">
<title>ForgetPasswordComponent&#45;&gt;AuthModule</title>
<path fill="none" stroke="black" d="M1104,-122.11C1104,-122.11 1104,-140.99 1104,-140.99"/>
<polygon fill="black" stroke="black" points="1100.5,-140.99 1104,-150.99 1107.5,-140.99 1100.5,-140.99"/>
</g>
<!-- ResetPasswordComponent -->
<g id="node9" class="node">
<title>ResetPasswordComponent</title>
<polygon fill="#ffffb3" stroke="black" points="1000.09,-122 833.91,-122 833.91,-86 1000.09,-86 1000.09,-122"/>
<text text-anchor="middle" x="917" y="-99.8" font-family="Times,serif" font-size="14.00">ResetPasswordComponent</text>
</g>
<!-- ResetPasswordComponent&#45;&gt;AuthModule -->
<g id="edge9" class="edge">
<title>ResetPasswordComponent&#45;&gt;AuthModule</title>
<path fill="none" stroke="black" d="M917,-122.19C917,-137.18 917,-156 917,-156 917,-156 1050.16,-156 1050.16,-156"/>
<polygon fill="black" stroke="black" points="1050.16,-159.5 1060.16,-156 1050.16,-152.5 1050.16,-159.5"/>
</g>
<!-- CommonModule -->
<g id="node11" class="node">
<title>CommonModule</title>
<polygon fill="#8dd3c7" stroke="black" points="809.67,-122 806.67,-126 785.67,-126 782.67,-122 698.33,-122 698.33,-86 809.67,-86 809.67,-122"/>
<text text-anchor="middle" x="754" y="-99.8" font-family="Times,serif" font-size="14.00">CommonModule</text>
</g>
<!-- CommonModule&#45;&gt;AuthModule -->
<g id="edge10" class="edge">
<title>CommonModule&#45;&gt;AuthModule</title>
<path fill="none" stroke="black" d="M754,-122.03C754,-138.4 754,-160 754,-160 754,-160 1050.38,-160 1050.38,-160"/>
<polygon fill="black" stroke="black" points="1050.38,-163.5 1060.38,-160 1050.38,-156.5 1050.38,-163.5"/>
</g>
<!-- AuthRoutingModule -->
<g id="node12" class="node">
<title>AuthRoutingModule</title>
<polygon fill="#8dd3c7" stroke="black" points="680.17,-122 677.17,-126 656.17,-126 653.17,-122 547.83,-122 547.83,-86 680.17,-86 680.17,-122"/>
<text text-anchor="middle" x="614" y="-99.8" font-family="Times,serif" font-size="14.00">AuthRoutingModule</text>
</g>
<!-- AuthRoutingModule&#45;&gt;AuthModule -->
<g id="edge11" class="edge">
<title>AuthRoutingModule&#45;&gt;AuthModule</title>
<path fill="none" stroke="black" d="M614,-122.3C614,-140.27 614,-165 614,-165 614,-165 1050.08,-165 1050.08,-165"/>
<polygon fill="black" stroke="black" points="1050.08,-168.5 1060.08,-165 1050.08,-161.5 1050.08,-168.5"/>
</g>
<!-- HomeModule -->
<g id="node13" class="node">
<title>HomeModule</title>
<polygon fill="#8dd3c7" stroke="black" points="529.76,-122 526.76,-126 505.76,-126 502.76,-122 436.24,-122 436.24,-86 529.76,-86 529.76,-122"/>
<text text-anchor="middle" x="483" y="-99.8" font-family="Times,serif" font-size="14.00">HomeModule</text>
</g>
<!-- HomeModule&#45;&gt;AuthModule -->
<g id="edge12" class="edge">
<title>HomeModule&#45;&gt;AuthModule</title>
<path fill="none" stroke="black" d="M483,-122.11C483,-141.34 483,-169 483,-169 483,-169 1050.33,-169 1050.33,-169"/>
<polygon fill="black" stroke="black" points="1050.33,-172.5 1060.33,-169 1050.33,-165.5 1050.33,-172.5"/>
</g>
<!-- FormsModule -->
<g id="node14" class="node">
<title>FormsModule</title>
<polygon fill="#8dd3c7" stroke="black" points="417.83,-122 414.83,-126 393.83,-126 390.83,-122 322.17,-122 322.17,-86 417.83,-86 417.83,-122"/>
<text text-anchor="middle" x="370" y="-99.8" font-family="Times,serif" font-size="14.00">FormsModule</text>
</g>
<!-- FormsModule&#45;&gt;AuthModule -->
<g id="edge13" class="edge">
<title>FormsModule&#45;&gt;AuthModule</title>
<path fill="none" stroke="black" d="M370,-122.03C370,-142.77 370,-174 370,-174 370,-174 1050.28,-174 1050.28,-174"/>
<polygon fill="black" stroke="black" points="1050.28,-177.5 1060.28,-174 1050.28,-170.5 1050.28,-177.5"/>
</g>
<!-- ReactiveFormsModule -->
<g id="node15" class="node">
<title>ReactiveFormsModule</title>
<polygon fill="#8dd3c7" stroke="black" points="304.3,-122 301.3,-126 280.3,-126 277.3,-122 159.7,-122 159.7,-86 304.3,-86 304.3,-122"/>
<text text-anchor="middle" x="232" y="-99.8" font-family="Times,serif" font-size="14.00">ReactiveFormsModule</text>
</g>
<!-- ReactiveFormsModule&#45;&gt;AuthModule -->
<g id="edge14" class="edge">
<title>ReactiveFormsModule&#45;&gt;AuthModule</title>
<path fill="none" stroke="black" d="M232,-122.29C232,-144.21 232,-178 232,-178 232,-178 1050.16,-178 1050.16,-178"/>
<polygon fill="black" stroke="black" points="1050.16,-181.5 1060.16,-178 1050.16,-174.5 1050.16,-181.5"/>
</g>
<!-- HttpClientModule -->
<g id="node16" class="node">
<title>HttpClientModule</title>
<polygon fill="#8dd3c7" stroke="black" points="142.16,-122 139.16,-126 118.16,-126 115.16,-122 23.84,-122 23.84,-86 142.16,-86 142.16,-122"/>
<text text-anchor="middle" x="83" y="-99.8" font-family="Times,serif" font-size="14.00">HttpClientModule</text>
</g>
<!-- HttpClientModule&#45;&gt;AuthModule -->
<g id="edge15" class="edge">
<title>HttpClientModule&#45;&gt;AuthModule</title>
<path fill="none" stroke="black" d="M83,-122.32C83,-145.66 83,-183 83,-183 83,-183 1050.13,-183 1050.13,-183"/>
<polygon fill="black" stroke="black" points="1050.13,-186.5 1060.13,-183 1050.13,-179.5 1050.13,-186.5"/>
</g>
</g>
</svg>
