<?xml version="1.0" encoding="UTF-8" standalone="no"?>
<!DOCTYPE svg PUBLIC "-//W3C//DTD SVG 1.1//EN"
 "http://www.w3.org/Graphics/SVG/1.1/DTD/svg11.dtd">
<!-- Generated by graphviz version 2.47.0 (20210316.0004)
 -->
<!-- Title: dependencies Pages: 1 -->
<svg width="740pt" height="211pt"
 viewBox="0.00 0.00 740.00 211.00" xmlns="http://www.w3.org/2000/svg" xmlns:xlink="http://www.w3.org/1999/xlink">
<g id="graph0" class="graph" transform="scale(1 1) rotate(0) translate(4 207)">
<title>dependencies</title>
<polygon fill="white" stroke="transparent" points="-4,4 -4,-207 736,-207 736,4 -4,4"/>
<text text-anchor="start" x="345.01" y="-42.4" font-family="Times-12" font-weight="bold" font-size="14.00">Legend</text>
<polygon fill="#ffffb3" stroke="transparent" points="132,-10 132,-30 152,-30 152,-10 132,-10"/>
<text text-anchor="start" x="155.63" y="-15.4" font-family="Times-12" font-size="14.00"> &#160;Declarations</text>
<polygon fill="#8dd3c7" stroke="transparent" points="245,-10 245,-30 265,-30 265,-10 245,-10"/>
<text text-anchor="start" x="268.73" y="-15.4" font-family="Times-12" font-size="14.00"> &#160;Module</text>
<polygon fill="#80b1d3" stroke="transparent" points="331,-10 331,-30 351,-30 351,-10 331,-10"/>
<text text-anchor="start" x="354.78" y="-15.4" font-family="Times-12" font-size="14.00"> &#160;Bootstrap</text>
<polygon fill="#fdb462" stroke="transparent" points="428,-10 428,-30 448,-30 448,-10 428,-10"/>
<text text-anchor="start" x="451.67" y="-15.4" font-family="Times-12" font-size="14.00"> &#160;Providers</text>
<polygon fill="#fb8072" stroke="transparent" points="524,-10 524,-30 544,-30 544,-10 524,-10"/>
<text text-anchor="start" x="547.73" y="-15.4" font-family="Times-12" font-size="14.00"> &#160;Exports</text>
<g id="clust1" class="cluster">
<title>cluster_MakerModule</title>
<polygon fill="none" stroke="black" stroke-dasharray="1,5" points="8,-70 8,-195 724,-195 724,-70 8,-70"/>
</g>
<g id="clust5" class="cluster">
<title>cluster_MakerModule_imports</title>
<polygon fill="none" stroke="black" points="318,-78 318,-130 716,-130 716,-78 318,-78"/>
</g>
<g id="clust2" class="cluster">
<title>cluster_MakerModule_declarations</title>
<polygon fill="none" stroke="black" points="16,-78 16,-130 310,-130 310,-78 16,-78"/>
</g>
<!-- ProfileMComponent -->
<g id="node1" class="node">
<title>ProfileMComponent</title>
<polygon fill="#ffffb3" stroke="black" points="301.88,-122 170.12,-122 170.12,-86 301.88,-86 301.88,-122"/>
<text text-anchor="middle" x="236" y="-99.8" font-family="Times,serif" font-size="14.00">ProfileMComponent</text>
</g>
<!-- MakerModule -->
<g id="node3" class="node">
<title>MakerModule</title>
<polygon fill="#8dd3c7" stroke="black" points="421.08,-187 418.08,-191 397.08,-191 394.08,-187 324.92,-187 324.92,-151 421.08,-151 421.08,-187"/>
<text text-anchor="middle" x="373" y="-164.8" font-family="Times,serif" font-size="14.00">MakerModule</text>
</g>
<!-- ProfileMComponent&#45;&gt;MakerModule -->
<g id="edge1" class="edge">
<title>ProfileMComponent&#45;&gt;MakerModule</title>
<path fill="none" stroke="black" d="M236,-122.02C236,-139.37 236,-163 236,-163 236,-163 314.7,-163 314.7,-163"/>
<polygon fill="black" stroke="black" points="314.7,-166.5 324.7,-163 314.7,-159.5 314.7,-166.5"/>
</g>
<!-- HomeMComponent -->
<g id="node2" class="node">
<title>HomeMComponent</title>
<polygon fill="#ffffb3" stroke="black" points="151.99,-122 24.01,-122 24.01,-86 151.99,-86 151.99,-122"/>
<text text-anchor="middle" x="88" y="-99.8" font-family="Times,serif" font-size="14.00">HomeMComponent</text>
</g>
<!-- HomeMComponent&#45;&gt;MakerModule -->
<g id="edge2" class="edge">
<title>HomeMComponent&#45;&gt;MakerModule</title>
<path fill="none" stroke="black" d="M88,-122.28C88,-143.32 88,-175 88,-175 88,-175 314.65,-175 314.65,-175"/>
<polygon fill="black" stroke="black" points="314.65,-178.5 324.65,-175 314.65,-171.5 314.65,-178.5"/>
</g>
<!-- CommonModule -->
<g id="node4" class="node">
<title>CommonModule</title>
<polygon fill="#8dd3c7" stroke="black" points="707.67,-122 704.67,-126 683.67,-126 680.67,-122 596.33,-122 596.33,-86 707.67,-86 707.67,-122"/>
<text text-anchor="middle" x="652" y="-99.8" font-family="Times,serif" font-size="14.00">CommonModule</text>
</g>
<!-- CommonModule&#45;&gt;MakerModule -->
<g id="edge3" class="edge">
<title>CommonModule&#45;&gt;MakerModule</title>
<path fill="none" stroke="black" d="M652,-122.28C652,-143.32 652,-175 652,-175 652,-175 431.28,-175 431.28,-175"/>
<polygon fill="black" stroke="black" points="431.28,-171.5 421.28,-175 431.28,-178.5 431.28,-171.5"/>
</g>
<!-- MakerRoutingModule -->
<g id="node5" class="node">
<title>MakerRoutingModule</title>
<polygon fill="#8dd3c7" stroke="black" points="578.7,-122 575.7,-126 554.7,-126 551.7,-122 437.3,-122 437.3,-86 578.7,-86 578.7,-122"/>
<text text-anchor="middle" x="508" y="-99.8" font-family="Times,serif" font-size="14.00">MakerRoutingModule</text>
</g>
<!-- MakerRoutingModule&#45;&gt;MakerModule -->
<g id="edge4" class="edge">
<title>MakerRoutingModule&#45;&gt;MakerModule</title>
<path fill="none" stroke="black" d="M508,-122.02C508,-139.37 508,-163 508,-163 508,-163 431.36,-163 431.36,-163"/>
<polygon fill="black" stroke="black" points="431.36,-159.5 421.36,-163 431.36,-166.5 431.36,-159.5"/>
</g>
<!-- HomeModule -->
<g id="node6" class="node">
<title>HomeModule</title>
<polygon fill="#8dd3c7" stroke="black" points="419.76,-122 416.76,-126 395.76,-126 392.76,-122 326.24,-122 326.24,-86 419.76,-86 419.76,-122"/>
<text text-anchor="middle" x="373" y="-99.8" font-family="Times,serif" font-size="14.00">HomeModule</text>
</g>
<!-- HomeModule&#45;&gt;MakerModule -->
<g id="edge5" class="edge">
<title>HomeModule&#45;&gt;MakerModule</title>
<path fill="none" stroke="black" d="M373,-122.11C373,-122.11 373,-140.99 373,-140.99"/>
<polygon fill="black" stroke="black" points="369.5,-140.99 373,-150.99 376.5,-140.99 369.5,-140.99"/>
</g>
</g>
</svg>
