<?xml version="1.0" encoding="UTF-8" standalone="no"?>
<!DOCTYPE svg PUBLIC "-//W3C//DTD SVG 1.1//EN"
 "http://www.w3.org/Graphics/SVG/1.1/DTD/svg11.dtd">
<!-- Generated by graphviz version 2.47.0 (20210316.0004)
 -->
<!-- Title: dependencies Pages: 1 -->
<svg width="2346pt" height="284pt"
 viewBox="0.00 0.00 2346.00 284.00" xmlns="http://www.w3.org/2000/svg" xmlns:xlink="http://www.w3.org/1999/xlink">
<g id="graph0" class="graph" transform="scale(1 1) rotate(0) translate(4 280)">
<title>dependencies</title>
<polygon fill="white" stroke="transparent" points="-4,4 -4,-280 2342,-280 2342,4 -4,4"/>
<text text-anchor="start" x="1148.01" y="-42.4" font-family="Times-12" font-weight="bold" font-size="14.00">Legend</text>
<polygon fill="#ffffb3" stroke="transparent" points="935,-10 935,-30 955,-30 955,-10 935,-10"/>
<text text-anchor="start" x="958.63" y="-15.4" font-family="Times-12" font-size="14.00"> &#160;Declarations</text>
<polygon fill="#8dd3c7" stroke="transparent" points="1048,-10 1048,-30 1068,-30 1068,-10 1048,-10"/>
<text text-anchor="start" x="1071.73" y="-15.4" font-family="Times-12" font-size="14.00"> &#160;Module</text>
<polygon fill="#80b1d3" stroke="transparent" points="1134,-10 1134,-30 1154,-30 1154,-10 1134,-10"/>
<text text-anchor="start" x="1157.78" y="-15.4" font-family="Times-12" font-size="14.00"> &#160;Bootstrap</text>
<polygon fill="#fdb462" stroke="transparent" points="1231,-10 1231,-30 1251,-30 1251,-10 1231,-10"/>
<text text-anchor="start" x="1254.67" y="-15.4" font-family="Times-12" font-size="14.00"> &#160;Providers</text>
<polygon fill="#fb8072" stroke="transparent" points="1327,-10 1327,-30 1347,-30 1347,-10 1327,-10"/>
<text text-anchor="start" x="1350.73" y="-15.4" font-family="Times-12" font-size="14.00"> &#160;Exports</text>
<g id="clust1" class="cluster">
<title>cluster_HomeModule</title>
<polygon fill="none" stroke="black" stroke-dasharray="1,5" points="8,-70 8,-268 2330,-268 2330,-70 8,-70"/>
</g>
<g id="clust17" class="cluster">
<title>cluster_HomeModule_imports</title>
<polygon fill="none" stroke="black" points="2038,-78 2038,-130 2322,-130 2322,-78 2038,-78"/>
</g>
<g id="clust18" class="cluster">
<title>cluster_HomeModule_exports</title>
<polygon fill="none" stroke="black" points="1008,-208 1008,-260 1322,-260 1322,-208 1008,-208"/>
</g>
<g id="clust2" class="cluster">
<title>cluster_HomeModule_declarations</title>
<polygon fill="none" stroke="black" points="16,-78 16,-130 2030,-130 2030,-78 16,-78"/>
</g>
<!-- NavbarComponent -->
<g id="node1" class="node">
<title>NavbarComponent</title>
<polygon fill="#ffffb3" stroke="black" points="2022.03,-122 1899.97,-122 1899.97,-86 2022.03,-86 2022.03,-122"/>
<text text-anchor="middle" x="1961" y="-99.8" font-family="Times,serif" font-size="14.00">NavbarComponent</text>
</g>
<!-- HomeModule -->
<g id="node15" class="node">
<title>HomeModule</title>
<polygon fill="#8dd3c7" stroke="black" points="1218.76,-187 1215.76,-191 1194.76,-191 1191.76,-187 1125.24,-187 1125.24,-151 1218.76,-151 1218.76,-187"/>
<text text-anchor="middle" x="1172" y="-164.8" font-family="Times,serif" font-size="14.00">HomeModule</text>
</g>
<!-- NavbarComponent&#45;&gt;HomeModule -->
<g id="edge1" class="edge">
<title>NavbarComponent&#45;&gt;HomeModule</title>
<path fill="none" stroke="black" d="M1961,-122.03C1961,-142.77 1961,-174 1961,-174 1961,-174 1228.99,-174 1228.99,-174"/>
<polygon fill="black" stroke="black" points="1228.99,-170.5 1218.99,-174 1228.99,-177.5 1228.99,-170.5"/>
</g>
<!-- HeroComponent -->
<g id="node2" class="node">
<title>HeroComponent</title>
<polygon fill="#ffffb3" stroke="black" points="1881.81,-122 1772.19,-122 1772.19,-86 1881.81,-86 1881.81,-122"/>
<text text-anchor="middle" x="1827" y="-99.8" font-family="Times,serif" font-size="14.00">HeroComponent</text>
</g>
<!-- HeroComponent&#45;&gt;HomeModule -->
<g id="edge2" class="edge">
<title>HeroComponent&#45;&gt;HomeModule</title>
<path fill="none" stroke="black" d="M1827,-122.11C1827,-141.34 1827,-169 1827,-169 1827,-169 1228.84,-169 1228.84,-169"/>
<polygon fill="black" stroke="black" points="1228.84,-165.5 1218.84,-169 1228.84,-172.5 1228.84,-165.5"/>
</g>
<!-- HomelayoutComponent -->
<g id="node3" class="node">
<title>HomelayoutComponent</title>
<polygon fill="#ffffb3" stroke="black" points="1754.04,-122 1603.96,-122 1603.96,-86 1754.04,-86 1754.04,-122"/>
<text text-anchor="middle" x="1679" y="-99.8" font-family="Times,serif" font-size="14.00">HomelayoutComponent</text>
</g>
<!-- HomelayoutComponent&#45;&gt;HomeModule -->
<g id="edge3" class="edge">
<title>HomelayoutComponent&#45;&gt;HomeModule</title>
<path fill="none" stroke="black" d="M1679,-122.3C1679,-140.27 1679,-165 1679,-165 1679,-165 1228.79,-165 1228.79,-165"/>
<polygon fill="black" stroke="black" points="1228.79,-161.5 1218.79,-165 1228.79,-168.5 1228.79,-161.5"/>
</g>
<!-- FooterComponent -->
<g id="node4" class="node">
<title>FooterComponent</title>
<polygon fill="#ffffb3" stroke="black" points="1585.88,-122 1468.12,-122 1468.12,-86 1585.88,-86 1585.88,-122"/>
<text text-anchor="middle" x="1527" y="-99.8" font-family="Times,serif" font-size="14.00">FooterComponent</text>
</g>
<!-- FooterComponent&#45;&gt;HomeModule -->
<g id="edge4" class="edge">
<title>FooterComponent&#45;&gt;HomeModule</title>
<path fill="none" stroke="black" d="M1527,-122.03C1527,-138.4 1527,-160 1527,-160 1527,-160 1228.78,-160 1228.78,-160"/>
<polygon fill="black" stroke="black" points="1228.78,-156.5 1218.78,-160 1228.78,-163.5 1228.78,-156.5"/>
</g>
<!-- ContactComponent -->
<g id="node5" class="node">
<title>ContactComponent</title>
<polygon fill="#ffffb3" stroke="black" points="1450.38,-122 1325.62,-122 1325.62,-86 1450.38,-86 1450.38,-122"/>
<text text-anchor="middle" x="1388" y="-99.8" font-family="Times,serif" font-size="14.00">ContactComponent</text>
</g>
<!-- ContactComponent&#45;&gt;HomeModule -->
<g id="edge5" class="edge">
<title>ContactComponent&#45;&gt;HomeModule</title>
<path fill="none" stroke="black" d="M1388,-122.19C1388,-137.18 1388,-156 1388,-156 1388,-156 1228.87,-156 1228.87,-156"/>
<polygon fill="black" stroke="black" points="1228.87,-152.5 1218.87,-156 1228.87,-159.5 1228.87,-152.5"/>
</g>
<!-- BrandsComponent -->
<g id="node6" class="node">
<title>BrandsComponent</title>
<polygon fill="#ffffb3" stroke="black" points="1307.49,-122 1186.51,-122 1186.51,-86 1307.49,-86 1307.49,-122"/>
<text text-anchor="middle" x="1247" y="-99.8" font-family="Times,serif" font-size="14.00">BrandsComponent</text>
</g>
<!-- BrandsComponent&#45;&gt;HomeModule -->
<g id="edge6" class="edge">
<title>BrandsComponent&#45;&gt;HomeModule</title>
<path fill="none" stroke="black" d="M1202.69,-122.11C1202.69,-122.11 1202.69,-140.99 1202.69,-140.99"/>
<polygon fill="black" stroke="black" points="1199.19,-140.99 1202.69,-150.99 1206.19,-140.99 1199.19,-140.99"/>
</g>
<!-- CategoriesComponent -->
<g id="node7" class="node">
<title>CategoriesComponent</title>
<polygon fill="#ffffb3" stroke="black" points="1168.7,-122 1027.3,-122 1027.3,-86 1168.7,-86 1168.7,-122"/>
<text text-anchor="middle" x="1098" y="-99.8" font-family="Times,serif" font-size="14.00">CategoriesComponent</text>
</g>
<!-- CategoriesComponent&#45;&gt;HomeModule -->
<g id="edge7" class="edge">
<title>CategoriesComponent&#45;&gt;HomeModule</title>
<path fill="none" stroke="black" d="M1146.86,-122.11C1146.86,-122.11 1146.86,-140.99 1146.86,-140.99"/>
<polygon fill="black" stroke="black" points="1143.36,-140.99 1146.86,-150.99 1150.36,-140.99 1143.36,-140.99"/>
</g>
<!-- WhyusComponent -->
<g id="node8" class="node">
<title>WhyusComponent</title>
<polygon fill="#ffffb3" stroke="black" points="1009.49,-122 888.51,-122 888.51,-86 1009.49,-86 1009.49,-122"/>
<text text-anchor="middle" x="949" y="-99.8" font-family="Times,serif" font-size="14.00">WhyusComponent</text>
</g>
<!-- WhyusComponent&#45;&gt;HomeModule -->
<g id="edge8" class="edge">
<title>WhyusComponent&#45;&gt;HomeModule</title>
<path fill="none" stroke="black" d="M949,-122.19C949,-137.18 949,-156 949,-156 949,-156 1114.98,-156 1114.98,-156"/>
<polygon fill="black" stroke="black" points="1114.98,-159.5 1124.98,-156 1114.98,-152.5 1114.98,-159.5"/>
</g>
<!-- AboutusComponent -->
<g id="node9" class="node">
<title>AboutusComponent</title>
<polygon fill="#ffffb3" stroke="black" points="870.27,-122 741.73,-122 741.73,-86 870.27,-86 870.27,-122"/>
<text text-anchor="middle" x="806" y="-99.8" font-family="Times,serif" font-size="14.00">AboutusComponent</text>
</g>
<!-- AboutusComponent&#45;&gt;HomeModule -->
<g id="edge9" class="edge">
<title>AboutusComponent&#45;&gt;HomeModule</title>
<path fill="none" stroke="black" d="M806,-122.03C806,-138.4 806,-160 806,-160 806,-160 1114.9,-160 1114.9,-160"/>
<polygon fill="black" stroke="black" points="1114.9,-163.5 1124.9,-160 1114.9,-156.5 1114.9,-163.5"/>
</g>
<!-- CtaComponent -->
<g id="node10" class="node">
<title>CtaComponent</title>
<polygon fill="#ffffb3" stroke="black" points="723.27,-122 622.73,-122 622.73,-86 723.27,-86 723.27,-122"/>
<text text-anchor="middle" x="673" y="-99.8" font-family="Times,serif" font-size="14.00">CtaComponent</text>
</g>
<!-- CtaComponent&#45;&gt;HomeModule -->
<g id="edge10" class="edge">
<title>CtaComponent&#45;&gt;HomeModule</title>
<path fill="none" stroke="black" d="M673,-122.3C673,-140.27 673,-165 673,-165 673,-165 1115.06,-165 1115.06,-165"/>
<polygon fill="black" stroke="black" points="1115.06,-168.5 1125.06,-165 1115.06,-161.5 1115.06,-168.5"/>
</g>
<!-- ParallaxgfxComponent -->
<g id="node11" class="node">
<title>ParallaxgfxComponent</title>
<polygon fill="#ffffb3" stroke="black" points="604.86,-122 459.14,-122 459.14,-86 604.86,-86 604.86,-122"/>
<text text-anchor="middle" x="532" y="-99.8" font-family="Times,serif" font-size="14.00">ParallaxgfxComponent</text>
</g>
<!-- ParallaxgfxComponent&#45;&gt;HomeModule -->
<g id="edge11" class="edge">
<title>ParallaxgfxComponent&#45;&gt;HomeModule</title>
<path fill="none" stroke="black" d="M532,-122.11C532,-141.34 532,-169 532,-169 532,-169 1115.2,-169 1115.2,-169"/>
<polygon fill="black" stroke="black" points="1115.2,-172.5 1125.2,-169 1115.2,-165.5 1115.2,-172.5"/>
</g>
<!-- UsComponent -->
<g id="node12" class="node">
<title>UsComponent</title>
<polygon fill="#ffffb3" stroke="black" points="441.38,-122 344.62,-122 344.62,-86 441.38,-86 441.38,-122"/>
<text text-anchor="middle" x="393" y="-99.8" font-family="Times,serif" font-size="14.00">UsComponent</text>
</g>
<!-- UsComponent&#45;&gt;HomeModule -->
<g id="edge12" class="edge">
<title>UsComponent&#45;&gt;HomeModule</title>
<path fill="none" stroke="black" d="M393,-122.03C393,-142.77 393,-174 393,-174 393,-174 1115.02,-174 1115.02,-174"/>
<polygon fill="black" stroke="black" points="1115.02,-177.5 1125.02,-174 1115.02,-170.5 1115.02,-177.5"/>
</g>
<!-- MapComponent -->
<g id="node13" class="node">
<title>MapComponent</title>
<polygon fill="#ffffb3" stroke="black" points="326.49,-122 219.51,-122 219.51,-86 326.49,-86 326.49,-122"/>
<text text-anchor="middle" x="273" y="-99.8" font-family="Times,serif" font-size="14.00">MapComponent</text>
</g>
<!-- MapComponent&#45;&gt;HomeModule -->
<g id="edge13" class="edge">
<title>MapComponent&#45;&gt;HomeModule</title>
<path fill="none" stroke="black" d="M273,-122.29C273,-144.21 273,-178 273,-178 273,-178 1114.93,-178 1114.93,-178"/>
<polygon fill="black" stroke="black" points="1114.93,-181.5 1124.93,-178 1114.93,-174.5 1114.93,-181.5"/>
</g>
<!-- SystmecommendComponent -->
<g id="node14" class="node">
<title>SystmecommendComponent</title>
<polygon fill="#ffffb3" stroke="black" points="201.77,-122 24.23,-122 24.23,-86 201.77,-86 201.77,-122"/>
<text text-anchor="middle" x="113" y="-99.8" font-family="Times,serif" font-size="14.00">SystmecommendComponent</text>
</g>
<!-- SystmecommendComponent&#45;&gt;HomeModule -->
<g id="edge14" class="edge">
<title>SystmecommendComponent&#45;&gt;HomeModule</title>
<path fill="none" stroke="black" d="M113,-122.32C113,-145.66 113,-183 113,-183 113,-183 1115.13,-183 1115.13,-183"/>
<polygon fill="black" stroke="black" points="1115.13,-186.5 1125.13,-183 1115.13,-179.5 1115.13,-186.5"/>
</g>
<!-- NavbarComponent  -->
<g id="node18" class="node">
<title>NavbarComponent </title>
<polygon fill="#fb8072" stroke="black" points="1314.03,-252 1187.97,-252 1187.97,-216 1314.03,-216 1314.03,-252"/>
<text text-anchor="middle" x="1251" y="-229.8" font-family="Times,serif" font-size="14.00">NavbarComponent </text>
</g>
<!-- HomeModule&#45;&gt;NavbarComponent  -->
<g id="edge17" class="edge">
<title>HomeModule&#45;&gt;NavbarComponent </title>
<path fill="none" stroke="black" stroke-dasharray="5,2" d="M1203.43,-187.11C1203.43,-187.11 1203.43,-205.99 1203.43,-205.99"/>
<polygon fill="black" stroke="black" points="1199.93,-205.99 1203.43,-215.99 1206.93,-205.99 1199.93,-205.99"/>
</g>
<!-- HomelayoutComponent  -->
<g id="node19" class="node">
<title>HomelayoutComponent </title>
<polygon fill="#fb8072" stroke="black" points="1170.04,-252 1015.96,-252 1015.96,-216 1170.04,-216 1170.04,-252"/>
<text text-anchor="middle" x="1093" y="-229.8" font-family="Times,serif" font-size="14.00">HomelayoutComponent </text>
</g>
<!-- HomeModule&#45;&gt;HomelayoutComponent  -->
<g id="edge18" class="edge">
<title>HomeModule&#45;&gt;HomelayoutComponent </title>
<path fill="none" stroke="black" stroke-dasharray="5,2" d="M1147.57,-187.11C1147.57,-187.11 1147.57,-205.99 1147.57,-205.99"/>
<polygon fill="black" stroke="black" points="1144.07,-205.99 1147.57,-215.99 1151.07,-205.99 1144.07,-205.99"/>
</g>
<!-- CommonModule -->
<g id="node16" class="node">
<title>CommonModule</title>
<polygon fill="#8dd3c7" stroke="black" points="2313.67,-122 2310.67,-126 2289.67,-126 2286.67,-122 2202.33,-122 2202.33,-86 2313.67,-86 2313.67,-122"/>
<text text-anchor="middle" x="2258" y="-99.8" font-family="Times,serif" font-size="14.00">CommonModule</text>
</g>
<!-- CommonModule&#45;&gt;HomeModule -->
<g id="edge15" class="edge">
<title>CommonModule&#45;&gt;HomeModule</title>
<path fill="none" stroke="black" d="M2258,-122.32C2258,-145.66 2258,-183 2258,-183 2258,-183 1229.01,-183 1229.01,-183"/>
<polygon fill="black" stroke="black" points="1229.01,-179.5 1219.01,-183 1229.01,-186.5 1229.01,-179.5"/>
</g>
<!-- HomeRoutingModule -->
<g id="node17" class="node">
<title>HomeRoutingModule</title>
<polygon fill="#8dd3c7" stroke="black" points="2184.38,-122 2181.38,-126 2160.38,-126 2157.38,-122 2045.62,-122 2045.62,-86 2184.38,-86 2184.38,-122"/>
<text text-anchor="middle" x="2115" y="-99.8" font-family="Times,serif" font-size="14.00">HomeRoutingModule</text>
</g>
<!-- HomeRoutingModule&#45;&gt;HomeModule -->
<g id="edge16" class="edge">
<title>HomeRoutingModule&#45;&gt;HomeModule</title>
<path fill="none" stroke="black" d="M2115,-122.29C2115,-144.21 2115,-178 2115,-178 2115,-178 1228.76,-178 1228.76,-178"/>
<polygon fill="black" stroke="black" points="1228.76,-174.5 1218.76,-178 1228.76,-181.5 1228.76,-174.5"/>
</g>
</g>
</svg>
