<?xml version="1.0" encoding="UTF-8" standalone="no"?>
<!DOCTYPE svg PUBLIC "-//W3C//DTD SVG 1.1//EN"
 "http://www.w3.org/Graphics/SVG/1.1/DTD/svg11.dtd">
<!-- Generated by graphviz version 2.47.0 (20210316.0004)
 -->
<!-- Title: dependencies Pages: 1 -->
<svg width="1220pt" height="284pt"
 viewBox="0.00 0.00 1220.00 284.00" xmlns="http://www.w3.org/2000/svg" xmlns:xlink="http://www.w3.org/1999/xlink">
<g id="graph0" class="graph" transform="scale(1 1) rotate(0) translate(4 280)">
<title>dependencies</title>
<polygon fill="white" stroke="transparent" points="-4,4 -4,-280 1216,-280 1216,4 -4,4"/>
<text text-anchor="start" x="585.01" y="-42.4" font-family="Times-12" font-weight="bold" font-size="14.00">Legend</text>
<polygon fill="#ffffb3" stroke="transparent" points="372,-10 372,-30 392,-30 392,-10 372,-10"/>
<text text-anchor="start" x="395.63" y="-15.4" font-family="Times-12" font-size="14.00"> &#160;Declarations</text>
<polygon fill="#8dd3c7" stroke="transparent" points="485,-10 485,-30 505,-30 505,-10 485,-10"/>
<text text-anchor="start" x="508.73" y="-15.4" font-family="Times-12" font-size="14.00"> &#160;Module</text>
<polygon fill="#80b1d3" stroke="transparent" points="571,-10 571,-30 591,-30 591,-10 571,-10"/>
<text text-anchor="start" x="594.78" y="-15.4" font-family="Times-12" font-size="14.00"> &#160;Bootstrap</text>
<polygon fill="#fdb462" stroke="transparent" points="668,-10 668,-30 688,-30 688,-10 668,-10"/>
<text text-anchor="start" x="691.67" y="-15.4" font-family="Times-12" font-size="14.00"> &#160;Providers</text>
<polygon fill="#fb8072" stroke="transparent" points="764,-10 764,-30 784,-30 784,-10 764,-10"/>
<text text-anchor="start" x="787.73" y="-15.4" font-family="Times-12" font-size="14.00"> &#160;Exports</text>
<g id="clust1" class="cluster">
<title>cluster_AppModule</title>
<polygon fill="none" stroke="black" stroke-dasharray="1,5" points="8,-70 8,-268 1204,-268 1204,-70 8,-70"/>
</g>
<g id="clust6" class="cluster">
<title>cluster_AppModule_imports</title>
<polygon fill="none" stroke="black" points="677,-78 677,-130 1196,-130 1196,-78 677,-78"/>
</g>
<g id="clust2" class="cluster">
<title>cluster_AppModule_declarations</title>
<polygon fill="none" stroke="black" points="262,-78 262,-130 669,-130 669,-78 262,-78"/>
</g>
<g id="clust9" class="cluster">
<title>cluster_AppModule_providers</title>
<polygon fill="none" stroke="black" points="16,-78 16,-130 254,-130 254,-78 16,-78"/>
</g>
<g id="clust8" class="cluster">
<title>cluster_AppModule_bootstrap</title>
<polygon fill="none" stroke="black" points="614,-208 614,-260 738,-260 738,-208 614,-208"/>
</g>
<!-- AppComponent -->
<g id="node1" class="node">
<title>AppComponent</title>
<polygon fill="#ffffb3" stroke="black" points="660.94,-122 555.06,-122 555.06,-86 660.94,-86 660.94,-122"/>
<text text-anchor="middle" x="608" y="-99.8" font-family="Times,serif" font-size="14.00">AppComponent</text>
</g>
<!-- AppModule -->
<g id="node4" class="node">
<title>AppModule</title>
<polygon fill="#8dd3c7" stroke="black" points="717.66,-187 714.66,-191 693.66,-191 690.66,-187 634.34,-187 634.34,-151 717.66,-151 717.66,-187"/>
<text text-anchor="middle" x="676" y="-164.8" font-family="Times,serif" font-size="14.00">AppModule</text>
</g>
<!-- AppComponent&#45;&gt;AppModule -->
<g id="edge1" class="edge">
<title>AppComponent&#45;&gt;AppModule</title>
<path fill="none" stroke="black" d="M647.45,-122.11C647.45,-122.11 647.45,-140.99 647.45,-140.99"/>
<polygon fill="black" stroke="black" points="643.95,-140.99 647.45,-150.99 650.95,-140.99 643.95,-140.99"/>
</g>
<!-- ErrorComponent -->
<g id="node2" class="node">
<title>ErrorComponent</title>
<polygon fill="#ffffb3" stroke="black" points="537.37,-122 426.63,-122 426.63,-86 537.37,-86 537.37,-122"/>
<text text-anchor="middle" x="482" y="-99.8" font-family="Times,serif" font-size="14.00">ErrorComponent</text>
</g>
<!-- ErrorComponent&#45;&gt;AppModule -->
<g id="edge2" class="edge">
<title>ErrorComponent&#45;&gt;AppModule</title>
<path fill="none" stroke="black" d="M482,-122.03C482,-138.4 482,-160 482,-160 482,-160 623.9,-160 623.9,-160"/>
<polygon fill="black" stroke="black" points="623.9,-163.5 633.9,-160 623.9,-156.5 623.9,-163.5"/>
</g>
<!-- ErroprimeComponent -->
<g id="node3" class="node">
<title>ErroprimeComponent</title>
<polygon fill="#ffffb3" stroke="black" points="408.36,-122 269.64,-122 269.64,-86 408.36,-86 408.36,-122"/>
<text text-anchor="middle" x="339" y="-99.8" font-family="Times,serif" font-size="14.00">ErroprimeComponent</text>
</g>
<!-- ErroprimeComponent&#45;&gt;AppModule -->
<g id="edge3" class="edge">
<title>ErroprimeComponent&#45;&gt;AppModule</title>
<path fill="none" stroke="black" d="M339,-122.11C339,-141.34 339,-169 339,-169 339,-169 624.34,-169 624.34,-169"/>
<polygon fill="black" stroke="black" points="624.34,-172.5 634.34,-169 624.34,-165.5 624.34,-172.5"/>
</g>
<!-- AppComponent  -->
<g id="node9" class="node">
<title>AppComponent </title>
<polygon fill="#80b1d3" stroke="black" points="730.44,-252 621.56,-252 621.56,-216 730.44,-216 730.44,-252"/>
<text text-anchor="middle" x="676" y="-229.8" font-family="Times,serif" font-size="14.00">AppComponent </text>
</g>
<!-- AppModule&#45;&gt;AppComponent  -->
<g id="edge8" class="edge">
<title>AppModule&#45;&gt;AppComponent </title>
<path fill="none" stroke="black" stroke-dasharray="1,5" d="M676,-187.11C676,-187.11 676,-205.99 676,-205.99"/>
<polygon fill="black" stroke="black" points="672.5,-205.99 676,-215.99 679.5,-205.99 672.5,-205.99"/>
</g>
<!-- BrowserModule -->
<g id="node5" class="node">
<title>BrowserModule</title>
<polygon fill="#8dd3c7" stroke="black" points="1188.47,-122 1185.47,-126 1164.47,-126 1161.47,-122 1081.53,-122 1081.53,-86 1188.47,-86 1188.47,-122"/>
<text text-anchor="middle" x="1135" y="-99.8" font-family="Times,serif" font-size="14.00">BrowserModule</text>
</g>
<!-- BrowserModule&#45;&gt;AppModule -->
<g id="edge4" class="edge">
<title>BrowserModule&#45;&gt;AppModule</title>
<path fill="none" stroke="black" d="M1135,-122.29C1135,-144.21 1135,-178 1135,-178 1135,-178 727.95,-178 727.95,-178"/>
<polygon fill="black" stroke="black" points="727.95,-174.5 717.95,-178 727.95,-181.5 727.95,-174.5"/>
</g>
<!-- AppRoutingModule -->
<g id="node6" class="node">
<title>AppRoutingModule</title>
<polygon fill="#8dd3c7" stroke="black" points="1063.27,-122 1060.27,-126 1039.27,-126 1036.27,-122 934.73,-122 934.73,-86 1063.27,-86 1063.27,-122"/>
<text text-anchor="middle" x="999" y="-99.8" font-family="Times,serif" font-size="14.00">AppRoutingModule</text>
</g>
<!-- AppRoutingModule&#45;&gt;AppModule -->
<g id="edge5" class="edge">
<title>AppRoutingModule&#45;&gt;AppModule</title>
<path fill="none" stroke="black" d="M999,-122.11C999,-141.34 999,-169 999,-169 999,-169 727.9,-169 727.9,-169"/>
<polygon fill="black" stroke="black" points="727.9,-165.5 717.9,-169 727.9,-172.5 727.9,-165.5"/>
</g>
<!-- FormsModule -->
<g id="node7" class="node">
<title>FormsModule</title>
<polygon fill="#8dd3c7" stroke="black" points="916.83,-122 913.83,-126 892.83,-126 889.83,-122 821.17,-122 821.17,-86 916.83,-86 916.83,-122"/>
<text text-anchor="middle" x="869" y="-99.8" font-family="Times,serif" font-size="14.00">FormsModule</text>
</g>
<!-- FormsModule&#45;&gt;AppModule -->
<g id="edge6" class="edge">
<title>FormsModule&#45;&gt;AppModule</title>
<path fill="none" stroke="black" d="M869,-122.03C869,-138.4 869,-160 869,-160 869,-160 727.88,-160 727.88,-160"/>
<polygon fill="black" stroke="black" points="727.88,-156.5 717.88,-160 727.88,-163.5 727.88,-156.5"/>
</g>
<!-- HttpClientModule -->
<g id="node8" class="node">
<title>HttpClientModule</title>
<polygon fill="#8dd3c7" stroke="black" points="803.16,-122 800.16,-126 779.16,-126 776.16,-122 684.84,-122 684.84,-86 803.16,-86 803.16,-122"/>
<text text-anchor="middle" x="744" y="-99.8" font-family="Times,serif" font-size="14.00">HttpClientModule</text>
</g>
<!-- HttpClientModule&#45;&gt;AppModule -->
<g id="edge7" class="edge">
<title>HttpClientModule&#45;&gt;AppModule</title>
<path fill="none" stroke="black" d="M701.25,-122.11C701.25,-122.11 701.25,-140.99 701.25,-140.99"/>
<polygon fill="black" stroke="black" points="697.75,-140.99 701.25,-150.99 704.75,-140.99 697.75,-140.99"/>
</g>
<!-- TokenInterceptorProvider -->
<g id="node10" class="node">
<title>TokenInterceptorProvider</title>
<ellipse fill="#fdb462" stroke="black" cx="135" cy="-104" rx="111.14" ry="18"/>
<text text-anchor="middle" x="135" y="-99.8" font-family="Times,serif" font-size="14.00">TokenInterceptorProvider</text>
</g>
<!-- TokenInterceptorProvider&#45;&gt;AppModule -->
<g id="edge9" class="edge">
<title>TokenInterceptorProvider&#45;&gt;AppModule</title>
<path fill="none" stroke="black" d="M135,-122.29C135,-144.21 135,-178 135,-178 135,-178 624,-178 624,-178"/>
<polygon fill="black" stroke="black" points="624,-181.5 634,-178 624,-174.5 624,-181.5"/>
</g>
</g>
</svg>
