<?xml version="1.0" encoding="UTF-8" standalone="no"?>
<!DOCTYPE svg PUBLIC "-//W3C//DTD SVG 1.1//EN"
 "http://www.w3.org/Graphics/SVG/1.1/DTD/svg11.dtd">
<!-- Generated by graphviz version 2.47.0 (20210316.0004)
 -->
<!-- Title: dependencies Pages: 1 -->
<svg width="5882pt" height="360pt"
 viewBox="0.00 0.00 5882.00 360.00" xmlns="http://www.w3.org/2000/svg" xmlns:xlink="http://www.w3.org/1999/xlink">
<g id="graph0" class="graph" transform="scale(1 1) rotate(0) translate(4 356)">
<title>dependencies</title>
<polygon fill="white" stroke="transparent" points="-4,4 -4,-356 5878,-356 5878,4 -4,4"/>
<text text-anchor="start" x="2916.01" y="-42.4" font-family="Times-12" font-weight="bold" font-size="14.00">Legend</text>
<polygon fill="#ffffb3" stroke="transparent" points="2703,-10 2703,-30 2723,-30 2723,-10 2703,-10"/>
<text text-anchor="start" x="2726.63" y="-15.4" font-family="Times-12" font-size="14.00"> &#160;Declarations</text>
<polygon fill="#8dd3c7" stroke="transparent" points="2816,-10 2816,-30 2836,-30 2836,-10 2816,-10"/>
<text text-anchor="start" x="2839.73" y="-15.4" font-family="Times-12" font-size="14.00"> &#160;Module</text>
<polygon fill="#80b1d3" stroke="transparent" points="2902,-10 2902,-30 2922,-30 2922,-10 2902,-10"/>
<text text-anchor="start" x="2925.78" y="-15.4" font-family="Times-12" font-size="14.00"> &#160;Bootstrap</text>
<polygon fill="#fdb462" stroke="transparent" points="2999,-10 2999,-30 3019,-30 3019,-10 2999,-10"/>
<text text-anchor="start" x="3022.67" y="-15.4" font-family="Times-12" font-size="14.00"> &#160;Providers</text>
<polygon fill="#fb8072" stroke="transparent" points="3095,-10 3095,-30 3115,-30 3115,-10 3095,-10"/>
<text text-anchor="start" x="3118.73" y="-15.4" font-family="Times-12" font-size="14.00"> &#160;Exports</text>
<g id="clust1" class="cluster">
<title>cluster_AppModule</title>
<polygon fill="none" stroke="black" stroke-dasharray="1,5" points="1326,-146 1326,-344 2522,-344 2522,-146 1326,-146"/>
</g>
<g id="clust2" class="cluster">
<title>cluster_AppModule_declarations</title>
<polygon fill="none" stroke="black" points="1580,-154 1580,-206 1987,-206 1987,-154 1580,-154"/>
</g>
<g id="clust6" class="cluster">
<title>cluster_AppModule_imports</title>
<polygon fill="none" stroke="black" points="1995,-154 1995,-206 2514,-206 2514,-154 1995,-154"/>
</g>
<g id="clust8" class="cluster">
<title>cluster_AppModule_bootstrap</title>
<polygon fill="none" stroke="black" points="1929,-284 1929,-336 2053,-336 2053,-284 1929,-284"/>
</g>
<g id="clust9" class="cluster">
<title>cluster_AppModule_providers</title>
<polygon fill="none" stroke="black" points="1334,-154 1334,-206 1572,-206 1572,-154 1334,-154"/>
</g>
<g id="clust10" class="cluster">
<title>cluster_AuthModule</title>
<polygon fill="none" stroke="black" stroke-dasharray="1,5" points="2530,-70 2530,-271 4501,-271 4501,-70 2530,-70"/>
</g>
<g id="clust11" class="cluster">
<title>cluster_AuthModule_declarations</title>
<polygon fill="none" stroke="black" points="2986,-154 2986,-206 4493,-206 4493,-154 2986,-154"/>
</g>
<g id="clust21" class="cluster">
<title>cluster_AuthModule_imports</title>
<polygon fill="none" stroke="black" points="2538,-78 2538,-206 2978,-206 2978,-78 2538,-78"/>
</g>
<g id="clust25" class="cluster">
<title>cluster_AuthRoutingModule</title>
<polygon fill="none" stroke="black" stroke-dasharray="1,5" points="4982,-146 4982,-214 5322,-214 5322,-146 4982,-146"/>
</g>
<g id="clust27" class="cluster">
<title>cluster_AuthRoutingModule_imports</title>
<polygon fill="none" stroke="black" points="5116,-154 5116,-206 5314,-206 5314,-154 5116,-154"/>
</g>
<g id="clust28" class="cluster">
<title>cluster_AuthRoutingModule_exports</title>
<polygon fill="none" stroke="black" points="4990,-154 4990,-206 5108,-206 5108,-154 4990,-154"/>
</g>
<g id="clust31" class="cluster">
<title>cluster_ClientModule</title>
<polygon fill="none" stroke="black" stroke-dasharray="1,5" points="4509,-146 4509,-271 4974,-271 4974,-146 4509,-146"/>
</g>
<g id="clust32" class="cluster">
<title>cluster_ClientModule_declarations</title>
<polygon fill="none" stroke="black" points="4679,-154 4679,-206 4966,-206 4966,-154 4679,-154"/>
</g>
<g id="clust35" class="cluster">
<title>cluster_ClientModule_imports</title>
<polygon fill="none" stroke="black" points="4517,-154 4517,-206 4671,-206 4671,-154 4517,-154"/>
</g>
<g id="clust45" class="cluster">
<title>cluster_HomeModule</title>
<polygon fill="none" stroke="black" stroke-dasharray="1,5" points="8,-70 8,-138 2522,-138 2522,-70 8,-70"/>
</g>
<g id="clust46" class="cluster">
<title>cluster_HomeModule_declarations</title>
<polygon fill="none" stroke="black" points="500,-78 500,-130 2514,-130 2514,-78 500,-78"/>
</g>
<g id="clust61" class="cluster">
<title>cluster_HomeModule_imports</title>
<polygon fill="none" stroke="black" points="338,-78 338,-130 492,-130 492,-78 338,-78"/>
</g>
<g id="clust62" class="cluster">
<title>cluster_HomeModule_exports</title>
<polygon fill="none" stroke="black" points="16,-78 16,-130 330,-130 330,-78 16,-78"/>
</g>
<g id="clust65" class="cluster">
<title>cluster_MakerModule</title>
<polygon fill="none" stroke="black" stroke-dasharray="1,5" points="5390,-146 5390,-271 5866,-271 5866,-146 5390,-146"/>
</g>
<g id="clust66" class="cluster">
<title>cluster_MakerModule_declarations</title>
<polygon fill="none" stroke="black" points="5564,-154 5564,-206 5858,-206 5858,-154 5564,-154"/>
</g>
<g id="clust69" class="cluster">
<title>cluster_MakerModule_imports</title>
<polygon fill="none" stroke="black" points="5398,-154 5398,-206 5556,-206 5556,-154 5398,-154"/>
</g>
<!-- AppComponent -->
<g id="node1" class="node">
<title>AppComponent</title>
<polygon fill="#ffffb3" stroke="black" points="1978.94,-198 1873.06,-198 1873.06,-162 1978.94,-162 1978.94,-198"/>
<text text-anchor="middle" x="1926" y="-175.8" font-family="Times,serif" font-size="14.00">AppComponent</text>
</g>
<!-- AppModule -->
<g id="node4" class="node">
<title>AppModule</title>
<polygon fill="#8dd3c7" stroke="black" points="2032.66,-263 2029.66,-267 2008.66,-267 2005.66,-263 1949.34,-263 1949.34,-227 2032.66,-227 2032.66,-263"/>
<text text-anchor="middle" x="1991" y="-240.8" font-family="Times,serif" font-size="14.00">AppModule</text>
</g>
<!-- AppComponent&#45;&gt;AppModule -->
<g id="edge1" class="edge">
<title>AppComponent&#45;&gt;AppModule</title>
<path fill="none" stroke="black" d="M1963.95,-198.11C1963.95,-198.11 1963.95,-216.99 1963.95,-216.99"/>
<polygon fill="black" stroke="black" points="1960.45,-216.99 1963.95,-226.99 1967.45,-216.99 1960.45,-216.99"/>
</g>
<!-- ErrorComponent -->
<g id="node2" class="node">
<title>ErrorComponent</title>
<polygon fill="#ffffb3" stroke="black" points="1855.37,-198 1744.63,-198 1744.63,-162 1855.37,-162 1855.37,-198"/>
<text text-anchor="middle" x="1800" y="-175.8" font-family="Times,serif" font-size="14.00">ErrorComponent</text>
</g>
<!-- ErrorComponent&#45;&gt;AppModule -->
<g id="edge2" class="edge">
<title>ErrorComponent&#45;&gt;AppModule</title>
<path fill="none" stroke="black" d="M1800,-198.03C1800,-214.4 1800,-236 1800,-236 1800,-236 1939.08,-236 1939.08,-236"/>
<polygon fill="black" stroke="black" points="1939.08,-239.5 1949.08,-236 1939.08,-232.5 1939.08,-239.5"/>
</g>
<!-- ErroprimeComponent -->
<g id="node3" class="node">
<title>ErroprimeComponent</title>
<polygon fill="#ffffb3" stroke="black" points="1726.36,-198 1587.64,-198 1587.64,-162 1726.36,-162 1726.36,-198"/>
<text text-anchor="middle" x="1657" y="-175.8" font-family="Times,serif" font-size="14.00">ErroprimeComponent</text>
</g>
<!-- ErroprimeComponent&#45;&gt;AppModule -->
<g id="edge3" class="edge">
<title>ErroprimeComponent&#45;&gt;AppModule</title>
<path fill="none" stroke="black" d="M1657,-198.11C1657,-217.34 1657,-245 1657,-245 1657,-245 1939.04,-245 1939.04,-245"/>
<polygon fill="black" stroke="black" points="1939.04,-248.5 1949.04,-245 1939.04,-241.5 1939.04,-248.5"/>
</g>
<!-- AppComponent  -->
<g id="node9" class="node">
<title>AppComponent </title>
<polygon fill="#80b1d3" stroke="black" points="2045.44,-328 1936.56,-328 1936.56,-292 2045.44,-292 2045.44,-328"/>
<text text-anchor="middle" x="1991" y="-305.8" font-family="Times,serif" font-size="14.00">AppComponent </text>
</g>
<!-- AppModule&#45;&gt;AppComponent  -->
<g id="edge8" class="edge">
<title>AppModule&#45;&gt;AppComponent </title>
<path fill="none" stroke="black" stroke-dasharray="1,5" d="M1991,-263.11C1991,-263.11 1991,-281.99 1991,-281.99"/>
<polygon fill="black" stroke="black" points="1987.5,-281.99 1991,-291.99 1994.5,-281.99 1987.5,-281.99"/>
</g>
<!-- BrowserModule -->
<g id="node5" class="node">
<title>BrowserModule</title>
<polygon fill="#8dd3c7" stroke="black" points="2109.47,-198 2106.47,-202 2085.47,-202 2082.47,-198 2002.53,-198 2002.53,-162 2109.47,-162 2109.47,-198"/>
<text text-anchor="middle" x="2056" y="-175.8" font-family="Times,serif" font-size="14.00">BrowserModule</text>
</g>
<!-- BrowserModule&#45;&gt;AppModule -->
<g id="edge4" class="edge">
<title>BrowserModule&#45;&gt;AppModule</title>
<path fill="none" stroke="black" d="M2017.67,-198.11C2017.67,-198.11 2017.67,-216.99 2017.67,-216.99"/>
<polygon fill="black" stroke="black" points="2014.17,-216.99 2017.67,-226.99 2021.17,-216.99 2014.17,-216.99"/>
</g>
<!-- AppRoutingModule -->
<g id="node6" class="node">
<title>AppRoutingModule</title>
<polygon fill="#8dd3c7" stroke="black" points="2256.27,-198 2253.27,-202 2232.27,-202 2229.27,-198 2127.73,-198 2127.73,-162 2256.27,-162 2256.27,-198"/>
<text text-anchor="middle" x="2192" y="-175.8" font-family="Times,serif" font-size="14.00">AppRoutingModule</text>
</g>
<!-- AppRoutingModule&#45;&gt;AppModule -->
<g id="edge5" class="edge">
<title>AppRoutingModule&#45;&gt;AppModule</title>
<path fill="none" stroke="black" d="M2192,-198.12C2192,-212.78 2192,-231 2192,-231 2192,-231 2043.14,-231 2043.14,-231"/>
<polygon fill="black" stroke="black" points="2043.14,-227.5 2033.14,-231 2043.14,-234.5 2043.14,-227.5"/>
</g>
<!-- FormsModule -->
<g id="node7" class="node">
<title>FormsModule</title>
<polygon fill="#8dd3c7" stroke="black" points="2369.83,-198 2366.83,-202 2345.83,-202 2342.83,-198 2274.17,-198 2274.17,-162 2369.83,-162 2369.83,-198"/>
<text text-anchor="middle" x="2322" y="-175.8" font-family="Times,serif" font-size="14.00">FormsModule</text>
</g>
<!-- FormsModule&#45;&gt;AppModule -->
<g id="edge6" class="edge">
<title>FormsModule&#45;&gt;AppModule</title>
<path fill="none" stroke="black" d="M2306.11,-198.28C2306.11,-213.95 2306.11,-234 2306.11,-234 2306.11,-234 2042.84,-234 2042.84,-234"/>
<polygon fill="black" stroke="black" points="2042.84,-230.5 2032.84,-234 2042.84,-237.5 2042.84,-230.5"/>
</g>
<!-- AuthModule -->
<g id="node20" class="node">
<title>AuthModule</title>
<polygon fill="#8dd3c7" stroke="black" points="3298.55,-263 3295.55,-267 3274.55,-267 3271.55,-263 3211.45,-263 3211.45,-227 3298.55,-227 3298.55,-263"/>
<text text-anchor="middle" x="3255" y="-240.8" font-family="Times,serif" font-size="14.00">AuthModule</text>
</g>
<!-- FormsModule&#45;&gt;AuthModule -->
<g id="edge22" class="edge">
<title>FormsModule&#45;&gt;AuthModule</title>
<path fill="none" stroke="black" d="M2337.89,-198.15C2337.89,-221.76 2337.89,-260 2337.89,-260 2337.89,-260 3201.38,-260 3201.38,-260"/>
<polygon fill="black" stroke="black" points="3201.38,-263.5 3211.38,-260 3201.38,-256.5 3201.38,-263.5"/>
</g>
<!-- HttpClientModule -->
<g id="node8" class="node">
<title>HttpClientModule</title>
<polygon fill="#8dd3c7" stroke="black" points="2506.16,-198 2503.16,-202 2482.16,-202 2479.16,-198 2387.84,-198 2387.84,-162 2506.16,-162 2506.16,-198"/>
<text text-anchor="middle" x="2447" y="-175.8" font-family="Times,serif" font-size="14.00">HttpClientModule</text>
</g>
<!-- HttpClientModule&#45;&gt;AppModule -->
<g id="edge7" class="edge">
<title>HttpClientModule&#45;&gt;AppModule</title>
<path fill="none" stroke="black" d="M2427.22,-198.04C2427.22,-214.73 2427.22,-237 2427.22,-237 2427.22,-237 2042.83,-237 2042.83,-237"/>
<polygon fill="black" stroke="black" points="2042.83,-233.5 2032.83,-237 2042.83,-240.5 2042.83,-233.5"/>
</g>
<!-- HttpClientModule&#45;&gt;AuthModule -->
<g id="edge24" class="edge">
<title>HttpClientModule&#45;&gt;AuthModule</title>
<path fill="none" stroke="black" d="M2466.78,-198.25C2466.78,-221.02 2466.78,-257 2466.78,-257 2466.78,-257 3201.22,-257 3201.22,-257"/>
<polygon fill="black" stroke="black" points="3201.22,-260.5 3211.22,-257 3201.22,-253.5 3201.22,-260.5"/>
</g>
<!-- TokenInterceptorProvider -->
<g id="node10" class="node">
<title>TokenInterceptorProvider</title>
<ellipse fill="#fdb462" stroke="black" cx="1453" cy="-180" rx="111.14" ry="18"/>
<text text-anchor="middle" x="1453" y="-175.8" font-family="Times,serif" font-size="14.00">TokenInterceptorProvider</text>
</g>
<!-- TokenInterceptorProvider&#45;&gt;AppModule -->
<g id="edge9" class="edge">
<title>TokenInterceptorProvider&#45;&gt;AppModule</title>
<path fill="none" stroke="black" d="M1453,-198.29C1453,-220.21 1453,-254 1453,-254 1453,-254 1939.23,-254 1939.23,-254"/>
<polygon fill="black" stroke="black" points="1939.23,-257.5 1949.23,-254 1939.23,-250.5 1939.23,-257.5"/>
</g>
<!-- LoginComponent -->
<g id="node11" class="node">
<title>LoginComponent</title>
<polygon fill="#ffffb3" stroke="black" points="3961.28,-198 3846.72,-198 3846.72,-162 3961.28,-162 3961.28,-198"/>
<text text-anchor="middle" x="3904" y="-175.8" font-family="Times,serif" font-size="14.00">LoginComponent</text>
</g>
<!-- LoginComponent&#45;&gt;AuthModule -->
<g id="edge10" class="edge">
<title>LoginComponent&#45;&gt;AuthModule</title>
<path fill="none" stroke="black" d="M3904,-198.27C3904,-216.56 3904,-242 3904,-242 3904,-242 3308.59,-242 3308.59,-242"/>
<polygon fill="black" stroke="black" points="3308.59,-238.5 3298.59,-242 3308.59,-245.5 3308.59,-238.5"/>
</g>
<!-- RegisterComponent -->
<g id="node12" class="node">
<title>RegisterComponent</title>
<polygon fill="#ffffb3" stroke="black" points="3828.98,-198 3701.02,-198 3701.02,-162 3828.98,-162 3828.98,-198"/>
<text text-anchor="middle" x="3765" y="-175.8" font-family="Times,serif" font-size="14.00">RegisterComponent</text>
</g>
<!-- RegisterComponent&#45;&gt;AuthModule -->
<g id="edge11" class="edge">
<title>RegisterComponent&#45;&gt;AuthModule</title>
<path fill="none" stroke="black" d="M3765,-198.03C3765,-215.06 3765,-238 3765,-238 3765,-238 3308.92,-238 3308.92,-238"/>
<polygon fill="black" stroke="black" points="3308.92,-234.5 3298.92,-238 3308.92,-241.5 3308.92,-234.5"/>
</g>
<!-- LogoutComponent -->
<g id="node13" class="node">
<title>LogoutComponent</title>
<polygon fill="#ffffb3" stroke="black" points="3682.78,-198 3561.22,-198 3561.22,-162 3682.78,-162 3682.78,-198"/>
<text text-anchor="middle" x="3622" y="-175.8" font-family="Times,serif" font-size="14.00">LogoutComponent</text>
</g>
<!-- LogoutComponent&#45;&gt;AuthModule -->
<g id="edge12" class="edge">
<title>LogoutComponent&#45;&gt;AuthModule</title>
<path fill="none" stroke="black" d="M3622,-198.01C3622,-214.05 3622,-235 3622,-235 3622,-235 3308.9,-235 3308.9,-235"/>
<polygon fill="black" stroke="black" points="3308.9,-231.5 3298.9,-235 3308.9,-238.5 3308.9,-231.5"/>
</g>
<!-- CustomersignupComponent -->
<g id="node14" class="node">
<title>CustomersignupComponent</title>
<polygon fill="#ffffb3" stroke="black" points="3543.61,-198 3370.39,-198 3370.39,-162 3543.61,-162 3543.61,-198"/>
<text text-anchor="middle" x="3457" y="-175.8" font-family="Times,serif" font-size="14.00">CustomersignupComponent</text>
</g>
<!-- CustomersignupComponent&#45;&gt;AuthModule -->
<g id="edge13" class="edge">
<title>CustomersignupComponent&#45;&gt;AuthModule</title>
<path fill="none" stroke="black" d="M3457,-198.12C3457,-212.78 3457,-231 3457,-231 3457,-231 3308.83,-231 3308.83,-231"/>
<polygon fill="black" stroke="black" points="3308.83,-227.5 3298.83,-231 3308.83,-234.5 3308.83,-227.5"/>
</g>
<!-- ManufacturersignupComponent -->
<g id="node15" class="node">
<title>ManufacturersignupComponent</title>
<polygon fill="#ffffb3" stroke="black" points="3352.34,-198 3157.66,-198 3157.66,-162 3352.34,-162 3352.34,-198"/>
<text text-anchor="middle" x="3255" y="-175.8" font-family="Times,serif" font-size="14.00">ManufacturersignupComponent</text>
</g>
<!-- ManufacturersignupComponent&#45;&gt;AuthModule -->
<g id="edge14" class="edge">
<title>ManufacturersignupComponent&#45;&gt;AuthModule</title>
<path fill="none" stroke="black" d="M3255,-198.11C3255,-198.11 3255,-216.99 3255,-216.99"/>
<polygon fill="black" stroke="black" points="3251.5,-216.99 3255,-226.99 3258.5,-216.99 3251.5,-216.99"/>
</g>
<!-- LayoutauthComponent -->
<g id="node16" class="node">
<title>LayoutauthComponent</title>
<polygon fill="#ffffb3" stroke="black" points="3139.6,-198 2994.4,-198 2994.4,-162 3139.6,-162 3139.6,-198"/>
<text text-anchor="middle" x="3067" y="-175.8" font-family="Times,serif" font-size="14.00">LayoutauthComponent</text>
</g>
<!-- LayoutauthComponent&#45;&gt;AuthModule -->
<g id="edge15" class="edge">
<title>LayoutauthComponent&#45;&gt;AuthModule</title>
<path fill="none" stroke="black" d="M3067,-198.3C3067,-216.27 3067,-241 3067,-241 3067,-241 3201.4,-241 3201.4,-241"/>
<polygon fill="black" stroke="black" points="3201.4,-244.5 3211.4,-241 3201.4,-237.5 3201.4,-244.5"/>
</g>
<!-- OtpVerifComponent -->
<g id="node17" class="node">
<title>OtpVerifComponent</title>
<polygon fill="#ffffb3" stroke="black" points="4484.86,-198 4353.14,-198 4353.14,-162 4484.86,-162 4484.86,-198"/>
<text text-anchor="middle" x="4419" y="-175.8" font-family="Times,serif" font-size="14.00">OtpVerifComponent</text>
</g>
<!-- OtpVerifComponent&#45;&gt;AuthModule -->
<g id="edge16" class="edge">
<title>OtpVerifComponent&#45;&gt;AuthModule</title>
<path fill="none" stroke="black" d="M4419,-198.04C4419,-219.66 4419,-253 4419,-253 4419,-253 3308.86,-253 3308.86,-253"/>
<polygon fill="black" stroke="black" points="3308.86,-249.5 3298.86,-253 3308.86,-256.5 3308.86,-249.5"/>
</g>
<!-- ForgetPasswordComponent -->
<g id="node18" class="node">
<title>ForgetPasswordComponent</title>
<polygon fill="#ffffb3" stroke="black" points="4334.54,-198 4163.46,-198 4163.46,-162 4334.54,-162 4334.54,-198"/>
<text text-anchor="middle" x="4249" y="-175.8" font-family="Times,serif" font-size="14.00">ForgetPasswordComponent</text>
</g>
<!-- ForgetPasswordComponent&#45;&gt;AuthModule -->
<g id="edge17" class="edge">
<title>ForgetPasswordComponent&#45;&gt;AuthModule</title>
<path fill="none" stroke="black" d="M4249,-198.13C4249,-218.57 4249,-249 4249,-249 4249,-249 3308.67,-249 3308.67,-249"/>
<polygon fill="black" stroke="black" points="3308.67,-245.5 3298.67,-249 3308.67,-252.5 3308.67,-245.5"/>
</g>
<!-- ResetPasswordComponent -->
<g id="node19" class="node">
<title>ResetPasswordComponent</title>
<polygon fill="#ffffb3" stroke="black" points="4145.09,-198 3978.91,-198 3978.91,-162 4145.09,-162 4145.09,-198"/>
<text text-anchor="middle" x="4062" y="-175.8" font-family="Times,serif" font-size="14.00">ResetPasswordComponent</text>
</g>
<!-- ResetPasswordComponent&#45;&gt;AuthModule -->
<g id="edge18" class="edge">
<title>ResetPasswordComponent&#45;&gt;AuthModule</title>
<path fill="none" stroke="black" d="M4062,-198.11C4062,-217.34 4062,-245 4062,-245 4062,-245 3308.67,-245 3308.67,-245"/>
<polygon fill="black" stroke="black" points="3308.67,-241.5 3298.67,-245 3308.67,-248.5 3308.67,-241.5"/>
</g>
<!-- CommonModule -->
<g id="node21" class="node">
<title>CommonModule</title>
<polygon fill="#8dd3c7" stroke="black" points="2969.67,-122 2966.67,-126 2945.67,-126 2942.67,-122 2858.33,-122 2858.33,-86 2969.67,-86 2969.67,-122"/>
<text text-anchor="middle" x="2914" y="-99.8" font-family="Times,serif" font-size="14.00">CommonModule</text>
</g>
<!-- CommonModule&#45;&gt;AuthModule -->
<g id="edge19" class="edge">
<title>CommonModule&#45;&gt;AuthModule</title>
<path fill="none" stroke="black" d="M2932.61,-122.02C2932.61,-159.83 2932.61,-244 2932.61,-244 2932.61,-244 3201.19,-244 3201.19,-244"/>
<polygon fill="black" stroke="black" points="3201.19,-247.5 3211.19,-244 3201.19,-240.5 3201.19,-247.5"/>
</g>
<!-- HomeModule -->
<g id="node23" class="node">
<title>HomeModule</title>
<polygon fill="#8dd3c7" stroke="black" points="2639.76,-198 2636.76,-202 2615.76,-202 2612.76,-198 2546.24,-198 2546.24,-162 2639.76,-162 2639.76,-198"/>
<text text-anchor="middle" x="2593" y="-175.8" font-family="Times,serif" font-size="14.00">HomeModule</text>
</g>
<!-- CommonModule&#45;&gt;HomeModule -->
<g id="edge48" class="edge">
<title>CommonModule&#45;&gt;HomeModule</title>
<path fill="none" stroke="black" d="M2895.39,-122.01C2895.39,-144.49 2895.39,-180 2895.39,-180 2895.39,-180 2649.92,-180 2649.92,-180"/>
<polygon fill="black" stroke="black" points="2649.92,-176.5 2639.92,-180 2649.92,-183.5 2649.92,-176.5"/>
</g>
<!-- ClientModule -->
<g id="node29" class="node">
<title>ClientModule</title>
<polygon fill="#8dd3c7" stroke="black" points="4797.77,-263 4794.77,-267 4773.77,-267 4770.77,-263 4704.23,-263 4704.23,-227 4797.77,-227 4797.77,-263"/>
<text text-anchor="middle" x="4751" y="-240.8" font-family="Times,serif" font-size="14.00">ClientModule</text>
</g>
<!-- CommonModule&#45;&gt;ClientModule -->
<g id="edge29" class="edge">
<title>CommonModule&#45;&gt;ClientModule</title>
<path fill="none" stroke="black" d="M2969.81,-110C3125.34,-110 3552.33,-110 3552.33,-110 3552.33,-110 3552.33,-260 3552.33,-260 3552.33,-260 4694.01,-260 4694.01,-260"/>
<polygon fill="black" stroke="black" points="4694.01,-263.5 4704.01,-260 4694.01,-256.5 4694.01,-263.5"/>
</g>
<!-- MakerModule -->
<g id="node50" class="node">
<title>MakerModule</title>
<polygon fill="#8dd3c7" stroke="black" points="5525.08,-263 5522.08,-267 5501.08,-267 5498.08,-263 5428.92,-263 5428.92,-227 5525.08,-227 5525.08,-263"/>
<text text-anchor="middle" x="5477" y="-240.8" font-family="Times,serif" font-size="14.00">MakerModule</text>
</g>
<!-- CommonModule&#45;&gt;MakerModule -->
<g id="edge54" class="edge">
<title>CommonModule&#45;&gt;MakerModule</title>
<path fill="none" stroke="black" d="M2969.75,-98C3299.34,-98 4978.43,-98 4978.43,-98 4978.43,-98 4978.43,-239 4978.43,-239 4978.43,-239 5418.74,-239 5418.74,-239"/>
<polygon fill="black" stroke="black" points="5418.74,-242.5 5428.74,-239 5418.74,-235.5 5418.74,-242.5"/>
</g>
<!-- AuthRoutingModule -->
<g id="node22" class="node">
<title>AuthRoutingModule</title>
<polygon fill="#8dd3c7" stroke="black" points="2840.17,-122 2837.17,-126 2816.17,-126 2813.17,-122 2707.83,-122 2707.83,-86 2840.17,-86 2840.17,-122"/>
<text text-anchor="middle" x="2774" y="-99.8" font-family="Times,serif" font-size="14.00">AuthRoutingModule</text>
</g>
<!-- AuthRoutingModule&#45;&gt;AuthModule -->
<g id="edge20" class="edge">
<title>AuthRoutingModule&#45;&gt;AuthModule</title>
<path fill="none" stroke="black" d="M2807.17,-122.11C2807.17,-160.59 2807.17,-247 2807.17,-247 2807.17,-247 3201.24,-247 3201.24,-247"/>
<polygon fill="black" stroke="black" points="3201.24,-250.5 3211.24,-247 3201.24,-243.5 3201.24,-250.5"/>
</g>
<!-- RouterModule  -->
<g id="node26" class="node">
<title>RouterModule </title>
<polygon fill="#fb8072" stroke="black" points="5099.65,-198 4998.35,-198 4998.35,-162 5099.65,-162 5099.65,-198"/>
<text text-anchor="middle" x="5049" y="-175.8" font-family="Times,serif" font-size="14.00">RouterModule </text>
</g>
<!-- AuthRoutingModule&#45;&gt;RouterModule  -->
<g id="edge26" class="edge">
<title>AuthRoutingModule&#45;&gt;RouterModule </title>
<path fill="none" stroke="black" stroke-dasharray="5,2" d="M2774,-122.12C2774,-124.97 2774,-127 2774,-127 2774,-127 5049,-127 5049,-127 5049,-127 5049,-151.76 5049,-151.76"/>
<polygon fill="black" stroke="black" points="5045.5,-151.76 5049,-161.76 5052.5,-151.76 5045.5,-151.76"/>
</g>
<!-- HomeModule&#45;&gt;AuthModule -->
<g id="edge21" class="edge">
<title>HomeModule&#45;&gt;AuthModule</title>
<path fill="none" stroke="black" d="M2616.44,-198.29C2616.44,-220.21 2616.44,-254 2616.44,-254 2616.44,-254 3201.11,-254 3201.11,-254"/>
<polygon fill="black" stroke="black" points="3201.11,-257.5 3211.11,-254 3201.11,-250.5 3201.11,-257.5"/>
</g>
<!-- HomeModule&#45;&gt;ClientModule -->
<g id="edge31" class="edge">
<title>HomeModule&#45;&gt;ClientModule</title>
<path fill="none" stroke="black" d="M2569.56,-198.49C2569.56,-210.14 2569.56,-223 2569.56,-223 2569.56,-223 4735.37,-223 4735.37,-223 4735.37,-223 4735.37,-223.38 4735.37,-223.38"/>
<polygon fill="black" stroke="black" points="4731.87,-216.83 4735.37,-226.83 4738.87,-216.83 4731.87,-216.83"/>
</g>
<!-- NavbarComponent  -->
<g id="node46" class="node">
<title>NavbarComponent </title>
<polygon fill="#fb8072" stroke="black" points="322.03,-122 195.97,-122 195.97,-86 322.03,-86 322.03,-122"/>
<text text-anchor="middle" x="259" y="-99.8" font-family="Times,serif" font-size="14.00">NavbarComponent </text>
</g>
<!-- HomeModule&#45;&gt;NavbarComponent  -->
<g id="edge50" class="edge">
<title>HomeModule&#45;&gt;NavbarComponent </title>
<path fill="none" stroke="black" stroke-dasharray="5,2" d="M2557.15,-161.83C2557.15,-159.55 2557.15,-158 2557.15,-158 2557.15,-158 259,-158 259,-158 259,-158 259,-132.28 259,-132.28"/>
<polygon fill="black" stroke="black" points="262.5,-132.28 259,-122.28 255.5,-132.28 262.5,-132.28"/>
</g>
<!-- HomelayoutComponent  -->
<g id="node47" class="node">
<title>HomelayoutComponent </title>
<polygon fill="#fb8072" stroke="black" points="178.04,-122 23.96,-122 23.96,-86 178.04,-86 178.04,-122"/>
<text text-anchor="middle" x="101" y="-99.8" font-family="Times,serif" font-size="14.00">HomelayoutComponent </text>
</g>
<!-- HomeModule&#45;&gt;HomelayoutComponent  -->
<g id="edge51" class="edge">
<title>HomeModule&#45;&gt;HomelayoutComponent </title>
<path fill="none" stroke="black" stroke-dasharray="5,2" d="M2551.63,-161.85C2551.63,-160.7 2551.63,-160 2551.63,-160 2551.63,-160 101,-160 101,-160 101,-160 101,-132.03 101,-132.03"/>
<polygon fill="black" stroke="black" points="104.5,-132.03 101,-122.03 97.5,-132.03 104.5,-132.03"/>
</g>
<!-- HomeModule&#45;&gt;MakerModule -->
<g id="edge56" class="edge">
<title>HomeModule&#45;&gt;MakerModule</title>
<path fill="none" stroke="black" d="M2593,-198.11C2593,-207.9 2593,-218 2593,-218 2593,-218 5460.99,-218 5460.99,-218 5460.99,-218 5460.99,-218.88 5460.99,-218.88"/>
<polygon fill="black" stroke="black" points="5457.49,-216.84 5460.99,-226.84 5464.49,-216.84 5457.49,-216.84"/>
</g>
<!-- ReactiveFormsModule -->
<g id="node24" class="node">
<title>ReactiveFormsModule</title>
<polygon fill="#8dd3c7" stroke="black" points="2690.3,-122 2687.3,-126 2666.3,-126 2663.3,-122 2545.7,-122 2545.7,-86 2690.3,-86 2690.3,-122"/>
<text text-anchor="middle" x="2618" y="-99.8" font-family="Times,serif" font-size="14.00">ReactiveFormsModule</text>
</g>
<!-- ReactiveFormsModule&#45;&gt;AuthModule -->
<g id="edge23" class="edge">
<title>ReactiveFormsModule&#45;&gt;AuthModule</title>
<path fill="none" stroke="black" d="M2665.02,-122.2C2665.02,-161.33 2665.02,-250 2665.02,-250 2665.02,-250 3201.14,-250 3201.14,-250"/>
<polygon fill="black" stroke="black" points="3201.14,-253.5 3211.14,-250 3201.14,-246.5 3201.14,-253.5"/>
</g>
<!-- RouterModule.forChild(args) -->
<g id="node25" class="node">
<title>RouterModule.forChild(args)</title>
<polygon fill="#8dd3c7" stroke="black" points="5305.73,-198 5302.73,-202 5281.73,-202 5278.73,-198 5124.27,-198 5124.27,-162 5305.73,-162 5305.73,-198"/>
<text text-anchor="middle" x="5215" y="-175.8" font-family="Times,serif" font-size="14.00">RouterModule.forChild(args)</text>
</g>
<!-- RouterModule.forChild(args)&#45;&gt;AuthRoutingModule -->
<g id="edge25" class="edge">
<title>RouterModule.forChild(args)&#45;&gt;AuthRoutingModule</title>
<path fill="none" stroke="black" d="M5215,-161.99C5215,-145.95 5215,-125 5215,-125 5215,-125 2740.83,-125 2740.83,-125 2740.83,-125 2740.83,-124.71 2740.83,-124.71"/>
<polygon fill="black" stroke="black" points="2744.33,-132.08 2740.83,-122.08 2737.33,-132.08 2744.33,-132.08"/>
</g>
<!-- ClientRoutingModule -->
<g id="node30" class="node">
<title>ClientRoutingModule</title>
<polygon fill="#8dd3c7" stroke="black" points="4663.39,-198 4660.39,-202 4639.39,-202 4636.39,-198 4524.61,-198 4524.61,-162 4663.39,-162 4663.39,-198"/>
<text text-anchor="middle" x="4594" y="-175.8" font-family="Times,serif" font-size="14.00">ClientRoutingModule</text>
</g>
<!-- RouterModule.forChild(args)&#45;&gt;ClientRoutingModule -->
<g id="edge32" class="edge">
<title>RouterModule.forChild(args)&#45;&gt;ClientRoutingModule</title>
<path fill="none" stroke="black" d="M5215,-198.21C5215,-203.55 5215,-208 5215,-208 5215,-208 4559.28,-208 4559.28,-208 4559.28,-208 4559.28,-207.02 4559.28,-207.02"/>
<polygon fill="black" stroke="black" points="4562.78,-208.21 4559.28,-198.21 4555.78,-208.21 4562.78,-208.21"/>
</g>
<!-- MakerRoutingModule -->
<g id="node51" class="node">
<title>MakerRoutingModule</title>
<polygon fill="#8dd3c7" stroke="black" points="5547.7,-198 5544.7,-202 5523.7,-202 5520.7,-198 5406.3,-198 5406.3,-162 5547.7,-162 5547.7,-198"/>
<text text-anchor="middle" x="5477" y="-175.8" font-family="Times,serif" font-size="14.00">MakerRoutingModule</text>
</g>
<!-- RouterModule.forChild(args)&#45;&gt;MakerRoutingModule -->
<g id="edge57" class="edge">
<title>RouterModule.forChild(args)&#45;&gt;MakerRoutingModule</title>
<path fill="none" stroke="black" d="M5305.9,-180C5305.9,-180 5396.09,-180 5396.09,-180"/>
<polygon fill="black" stroke="black" points="5396.09,-183.5 5406.09,-180 5396.09,-176.5 5396.09,-183.5"/>
</g>
<!-- ProfileCComponent -->
<g id="node27" class="node">
<title>ProfileCComponent</title>
<polygon fill="#ffffb3" stroke="black" points="4815.27,-198 4686.73,-198 4686.73,-162 4815.27,-162 4815.27,-198"/>
<text text-anchor="middle" x="4751" y="-175.8" font-family="Times,serif" font-size="14.00">ProfileCComponent</text>
</g>
<!-- ProfileCComponent&#45;&gt;ClientModule -->
<g id="edge27" class="edge">
<title>ProfileCComponent&#45;&gt;ClientModule</title>
<path fill="none" stroke="black" d="M4766.63,-198.11C4766.63,-198.11 4766.63,-216.99 4766.63,-216.99"/>
<polygon fill="black" stroke="black" points="4763.13,-216.99 4766.63,-226.99 4770.13,-216.99 4763.13,-216.99"/>
</g>
<!-- HomeCComponent -->
<g id="node28" class="node">
<title>HomeCComponent</title>
<polygon fill="#ffffb3" stroke="black" points="4958.38,-198 4833.62,-198 4833.62,-162 4958.38,-162 4958.38,-198"/>
<text text-anchor="middle" x="4896" y="-175.8" font-family="Times,serif" font-size="14.00">HomeCComponent</text>
</g>
<!-- HomeCComponent&#45;&gt;ClientModule -->
<g id="edge28" class="edge">
<title>HomeCComponent&#45;&gt;ClientModule</title>
<path fill="none" stroke="black" d="M4896,-198.28C4896,-219.32 4896,-251 4896,-251 4896,-251 4808.08,-251 4808.08,-251"/>
<polygon fill="black" stroke="black" points="4808.08,-247.5 4798.08,-251 4808.08,-254.5 4808.08,-247.5"/>
</g>
<!-- ClientRoutingModule&#45;&gt;RouterModule  -->
<g id="edge33" class="edge">
<title>ClientRoutingModule&#45;&gt;RouterModule </title>
<path fill="none" stroke="black" stroke-dasharray="5,2" d="M4594,-198.12C4594,-200.97 4594,-203 4594,-203 4594,-203 5032.14,-203 5032.14,-203 5032.14,-203 5032.14,-202.51 5032.14,-202.51"/>
<polygon fill="black" stroke="black" points="5035.64,-208.12 5032.14,-198.12 5028.64,-208.12 5035.64,-208.12"/>
</g>
<!-- ClientRoutingModule&#45;&gt;ClientModule -->
<g id="edge30" class="edge">
<title>ClientRoutingModule&#45;&gt;ClientModule</title>
<path fill="none" stroke="black" d="M4628.72,-198.01C4628.72,-220.49 4628.72,-256 4628.72,-256 4628.72,-256 4694.07,-256 4694.07,-256"/>
<polygon fill="black" stroke="black" points="4694.07,-259.5 4704.07,-256 4694.07,-252.5 4694.07,-259.5"/>
</g>
<!-- NavbarComponent -->
<g id="node31" class="node">
<title>NavbarComponent</title>
<polygon fill="#ffffb3" stroke="black" points="1907.03,-122 1784.97,-122 1784.97,-86 1907.03,-86 1907.03,-122"/>
<text text-anchor="middle" x="1846" y="-99.8" font-family="Times,serif" font-size="14.00">NavbarComponent</text>
</g>
<!-- NavbarComponent&#45;&gt;HomeModule -->
<g id="edge34" class="edge">
<title>NavbarComponent&#45;&gt;HomeModule</title>
<path fill="none" stroke="black" d="M1890.27,-122.03C1890.27,-128.85 1890.27,-135 1890.27,-135 1890.27,-135 2617.82,-135 2617.82,-135 2617.82,-135 2617.82,-151.96 2617.82,-151.96"/>
<polygon fill="black" stroke="black" points="2614.32,-151.96 2617.82,-161.96 2621.32,-151.96 2614.32,-151.96"/>
</g>
<!-- HeroComponent -->
<g id="node32" class="node">
<title>HeroComponent</title>
<polygon fill="#ffffb3" stroke="black" points="1766.81,-122 1657.19,-122 1657.19,-86 1766.81,-86 1766.81,-122"/>
<text text-anchor="middle" x="1712" y="-99.8" font-family="Times,serif" font-size="14.00">HeroComponent</text>
</g>
<!-- HeroComponent&#45;&gt;HomeModule -->
<g id="edge35" class="edge">
<title>HeroComponent&#45;&gt;HomeModule</title>
<path fill="none" stroke="black" d="M1755.61,-122.04C1755.61,-129.75 1755.61,-137 1755.61,-137 1755.61,-137 2612.3,-137 2612.3,-137 2612.3,-137 2612.3,-151.51 2612.3,-151.51"/>
<polygon fill="black" stroke="black" points="2608.8,-151.51 2612.3,-161.51 2615.8,-151.51 2608.8,-151.51"/>
</g>
<!-- HomelayoutComponent -->
<g id="node33" class="node">
<title>HomelayoutComponent</title>
<polygon fill="#ffffb3" stroke="black" points="1639.04,-122 1488.96,-122 1488.96,-86 1639.04,-86 1639.04,-122"/>
<text text-anchor="middle" x="1564" y="-99.8" font-family="Times,serif" font-size="14.00">HomelayoutComponent</text>
</g>
<!-- HomelayoutComponent&#45;&gt;HomeModule -->
<g id="edge36" class="edge">
<title>HomelayoutComponent&#45;&gt;HomeModule</title>
<path fill="none" stroke="black" d="M1613.42,-122.32C1613.42,-130.79 1613.42,-139 1613.42,-139 1613.42,-139 2606.79,-139 2606.79,-139 2606.79,-139 2606.79,-151.9 2606.79,-151.9"/>
<polygon fill="black" stroke="black" points="2603.29,-151.9 2606.79,-161.9 2610.29,-151.9 2603.29,-151.9"/>
</g>
<!-- FooterComponent -->
<g id="node34" class="node">
<title>FooterComponent</title>
<polygon fill="#ffffb3" stroke="black" points="1470.88,-122 1353.12,-122 1353.12,-86 1470.88,-86 1470.88,-122"/>
<text text-anchor="middle" x="1412" y="-99.8" font-family="Times,serif" font-size="14.00">FooterComponent</text>
</g>
<!-- FooterComponent&#45;&gt;HomeModule -->
<g id="edge37" class="edge">
<title>FooterComponent&#45;&gt;HomeModule</title>
<path fill="none" stroke="black" d="M1412,-122.07C1412,-131.46 1412,-141 1412,-141 1412,-141 2601.27,-141 2601.27,-141 2601.27,-141 2601.27,-151.87 2601.27,-151.87"/>
<polygon fill="black" stroke="black" points="2597.77,-151.87 2601.27,-161.87 2604.77,-151.87 2597.77,-151.87"/>
</g>
<!-- ContactComponent -->
<g id="node35" class="node">
<title>ContactComponent</title>
<polygon fill="#ffffb3" stroke="black" points="1335.38,-122 1210.62,-122 1210.62,-86 1335.38,-86 1335.38,-122"/>
<text text-anchor="middle" x="1273" y="-99.8" font-family="Times,serif" font-size="14.00">ContactComponent</text>
</g>
<!-- ContactComponent&#45;&gt;HomeModule -->
<g id="edge38" class="edge">
<title>ContactComponent&#45;&gt;HomeModule</title>
<path fill="none" stroke="black" d="M1273,-122.13C1273,-132.71 1273,-144 1273,-144 1273,-144 2595.76,-144 2595.76,-144 2595.76,-144 2595.76,-151.58 2595.76,-151.58"/>
<polygon fill="black" stroke="black" points="2592.26,-151.58 2595.76,-161.58 2599.26,-151.58 2592.26,-151.58"/>
</g>
<!-- BrandsComponent -->
<g id="node36" class="node">
<title>BrandsComponent</title>
<polygon fill="#ffffb3" stroke="black" points="1192.49,-122 1071.51,-122 1071.51,-86 1192.49,-86 1192.49,-122"/>
<text text-anchor="middle" x="1132" y="-99.8" font-family="Times,serif" font-size="14.00">BrandsComponent</text>
</g>
<!-- BrandsComponent&#45;&gt;HomeModule -->
<g id="edge39" class="edge">
<title>BrandsComponent&#45;&gt;HomeModule</title>
<path fill="none" stroke="black" d="M1132,-122.06C1132,-133.44 1132,-146 1132,-146 1132,-146 2590.24,-146 2590.24,-146 2590.24,-146 2590.24,-151.81 2590.24,-151.81"/>
<polygon fill="black" stroke="black" points="2586.74,-151.81 2590.24,-161.81 2593.74,-151.81 2586.74,-151.81"/>
</g>
<!-- CategoriesComponent -->
<g id="node37" class="node">
<title>CategoriesComponent</title>
<polygon fill="#ffffb3" stroke="black" points="1053.7,-122 912.3,-122 912.3,-86 1053.7,-86 1053.7,-122"/>
<text text-anchor="middle" x="983" y="-99.8" font-family="Times,serif" font-size="14.00">CategoriesComponent</text>
</g>
<!-- CategoriesComponent&#45;&gt;HomeModule -->
<g id="edge40" class="edge">
<title>CategoriesComponent&#45;&gt;HomeModule</title>
<path fill="none" stroke="black" d="M983,-122.15C983,-134.27 983,-148 983,-148 983,-148 2584.73,-148 2584.73,-148 2584.73,-148 2584.73,-151.76 2584.73,-151.76"/>
<polygon fill="black" stroke="black" points="2581.23,-151.76 2584.73,-161.76 2588.23,-151.76 2581.23,-151.76"/>
</g>
<!-- WhyusComponent -->
<g id="node38" class="node">
<title>WhyusComponent</title>
<polygon fill="#ffffb3" stroke="black" points="894.49,-122 773.51,-122 773.51,-86 894.49,-86 894.49,-122"/>
<text text-anchor="middle" x="834" y="-99.8" font-family="Times,serif" font-size="14.00">WhyusComponent</text>
</g>
<!-- WhyusComponent&#45;&gt;HomeModule -->
<g id="edge41" class="edge">
<title>WhyusComponent&#45;&gt;HomeModule</title>
<path fill="none" stroke="black" d="M834,-122.18C834,-135.04 834,-150 834,-150 834,-150 2579.21,-150 2579.21,-150 2579.21,-150 2579.21,-151.86 2579.21,-151.86"/>
<polygon fill="black" stroke="black" points="2575.71,-151.86 2579.21,-161.86 2582.71,-151.86 2575.71,-151.86"/>
</g>
<!-- AboutusComponent -->
<g id="node39" class="node">
<title>AboutusComponent</title>
<polygon fill="#ffffb3" stroke="black" points="755.27,-122 626.73,-122 626.73,-86 755.27,-86 755.27,-122"/>
<text text-anchor="middle" x="691" y="-99.8" font-family="Times,serif" font-size="14.00">AboutusComponent</text>
</g>
<!-- AboutusComponent&#45;&gt;HomeModule -->
<g id="edge42" class="edge">
<title>AboutusComponent&#45;&gt;HomeModule</title>
<path fill="none" stroke="black" d="M691,-122.15C691,-135.74 691,-152 691,-152 691,-152 2573.7,-152 2573.7,-152 2573.7,-152 2573.7,-152.98 2573.7,-152.98"/>
<polygon fill="black" stroke="black" points="2570.2,-151.79 2573.7,-161.79 2577.2,-151.79 2570.2,-151.79"/>
</g>
<!-- CtaComponent -->
<g id="node40" class="node">
<title>CtaComponent</title>
<polygon fill="#ffffb3" stroke="black" points="608.27,-122 507.73,-122 507.73,-86 608.27,-86 608.27,-122"/>
<text text-anchor="middle" x="558" y="-99.8" font-family="Times,serif" font-size="14.00">CtaComponent</text>
</g>
<!-- CtaComponent&#45;&gt;HomeModule -->
<g id="edge43" class="edge">
<title>CtaComponent&#45;&gt;HomeModule</title>
<path fill="none" stroke="black" d="M558,-122.05C558,-136.37 558,-154 558,-154 558,-154 2568.18,-154 2568.18,-154 2568.18,-154 2568.18,-154.79 2568.18,-154.79"/>
<polygon fill="black" stroke="black" points="2564.68,-151.94 2568.18,-161.94 2571.68,-151.94 2564.68,-151.94"/>
</g>
<!-- ParallaxgfxComponent -->
<g id="node41" class="node">
<title>ParallaxgfxComponent</title>
<polygon fill="#ffffb3" stroke="black" points="2505.86,-122 2360.14,-122 2360.14,-86 2505.86,-86 2505.86,-122"/>
<text text-anchor="middle" x="2433" y="-99.8" font-family="Times,serif" font-size="14.00">ParallaxgfxComponent</text>
</g>
<!-- ParallaxgfxComponent&#45;&gt;HomeModule -->
<g id="edge44" class="edge">
<title>ParallaxgfxComponent&#45;&gt;HomeModule</title>
<path fill="none" stroke="black" d="M2505.89,-104C2517.67,-104 2526.09,-104 2526.09,-104 2526.09,-104 2526.09,-180 2526.09,-180 2526.09,-180 2536.16,-180 2536.16,-180"/>
<polygon fill="black" stroke="black" points="2536.16,-183.5 2546.16,-180 2536.16,-176.5 2536.16,-183.5"/>
</g>
<!-- UsComponent -->
<g id="node42" class="node">
<title>UsComponent</title>
<polygon fill="#ffffb3" stroke="black" points="2342.38,-122 2245.62,-122 2245.62,-86 2342.38,-86 2342.38,-122"/>
<text text-anchor="middle" x="2294" y="-99.8" font-family="Times,serif" font-size="14.00">UsComponent</text>
</g>
<!-- UsComponent&#45;&gt;HomeModule -->
<g id="edge45" class="edge">
<title>UsComponent&#45;&gt;HomeModule</title>
<path fill="none" stroke="black" d="M2308.39,-122.17C2308.39,-126.05 2308.39,-129 2308.39,-129 2308.39,-129 2634.37,-129 2634.37,-129 2634.37,-129 2634.37,-151.88 2634.37,-151.88"/>
<polygon fill="black" stroke="black" points="2630.87,-151.88 2634.37,-161.88 2637.87,-151.88 2630.87,-151.88"/>
</g>
<!-- MapComponent -->
<g id="node43" class="node">
<title>MapComponent</title>
<polygon fill="#ffffb3" stroke="black" points="2227.49,-122 2120.51,-122 2120.51,-86 2227.49,-86 2227.49,-122"/>
<text text-anchor="middle" x="2174" y="-99.8" font-family="Times,serif" font-size="14.00">MapComponent</text>
</g>
<!-- MapComponent&#45;&gt;HomeModule -->
<g id="edge46" class="edge">
<title>MapComponent&#45;&gt;HomeModule</title>
<path fill="none" stroke="black" d="M2177.55,-122.16C2177.55,-127.04 2177.55,-131 2177.55,-131 2177.55,-131 2628.85,-131 2628.85,-131 2628.85,-131 2628.85,-151.75 2628.85,-151.75"/>
<polygon fill="black" stroke="black" points="2625.35,-151.75 2628.85,-161.75 2632.35,-151.75 2625.35,-151.75"/>
</g>
<!-- SystmecommendComponent -->
<g id="node44" class="node">
<title>SystmecommendComponent</title>
<polygon fill="#ffffb3" stroke="black" points="2102.77,-122 1925.23,-122 1925.23,-86 2102.77,-86 2102.77,-122"/>
<text text-anchor="middle" x="2014" y="-99.8" font-family="Times,serif" font-size="14.00">SystmecommendComponent</text>
</g>
<!-- SystmecommendComponent&#45;&gt;HomeModule -->
<g id="edge47" class="edge">
<title>SystmecommendComponent&#45;&gt;HomeModule</title>
<path fill="none" stroke="black" d="M2052.7,-122.2C2052.7,-128.03 2052.7,-133 2052.7,-133 2052.7,-133 2623.33,-133 2623.33,-133 2623.33,-133 2623.33,-151.96 2623.33,-151.96"/>
<polygon fill="black" stroke="black" points="2619.83,-151.96 2623.33,-161.96 2626.83,-151.96 2619.83,-151.96"/>
</g>
<!-- HomeRoutingModule -->
<g id="node45" class="node">
<title>HomeRoutingModule</title>
<polygon fill="#8dd3c7" stroke="black" points="484.38,-122 481.38,-126 460.38,-126 457.38,-122 345.62,-122 345.62,-86 484.38,-86 484.38,-122"/>
<text text-anchor="middle" x="415" y="-99.8" font-family="Times,serif" font-size="14.00">HomeRoutingModule</text>
</g>
<!-- HomeRoutingModule&#45;&gt;HomeModule -->
<g id="edge49" class="edge">
<title>HomeRoutingModule&#45;&gt;HomeModule</title>
<path fill="none" stroke="black" d="M415,-122.19C415,-137.18 415,-156 415,-156 415,-156 2562.67,-156 2562.67,-156 2562.67,-156 2562.67,-156.58 2562.67,-156.58"/>
<polygon fill="black" stroke="black" points="2559.17,-151.81 2562.67,-161.81 2566.17,-151.81 2559.17,-151.81"/>
</g>
<!-- ProfileMComponent -->
<g id="node48" class="node">
<title>ProfileMComponent</title>
<polygon fill="#ffffb3" stroke="black" points="5703.88,-198 5572.12,-198 5572.12,-162 5703.88,-162 5703.88,-198"/>
<text text-anchor="middle" x="5638" y="-175.8" font-family="Times,serif" font-size="14.00">ProfileMComponent</text>
</g>
<!-- ProfileMComponent&#45;&gt;MakerModule -->
<g id="edge52" class="edge">
<title>ProfileMComponent&#45;&gt;MakerModule</title>
<path fill="none" stroke="black" d="M5638,-198.02C5638,-215.37 5638,-239 5638,-239 5638,-239 5535.31,-239 5535.31,-239"/>
<polygon fill="black" stroke="black" points="5535.31,-235.5 5525.31,-239 5535.31,-242.5 5535.31,-235.5"/>
</g>
<!-- HomeMComponent -->
<g id="node49" class="node">
<title>HomeMComponent</title>
<polygon fill="#ffffb3" stroke="black" points="5849.99,-198 5722.01,-198 5722.01,-162 5849.99,-162 5849.99,-198"/>
<text text-anchor="middle" x="5786" y="-175.8" font-family="Times,serif" font-size="14.00">HomeMComponent</text>
</g>
<!-- HomeMComponent&#45;&gt;MakerModule -->
<g id="edge53" class="edge">
<title>HomeMComponent&#45;&gt;MakerModule</title>
<path fill="none" stroke="black" d="M5786,-198.28C5786,-219.32 5786,-251 5786,-251 5786,-251 5535.28,-251 5535.28,-251"/>
<polygon fill="black" stroke="black" points="5535.28,-247.5 5525.28,-251 5535.28,-254.5 5535.28,-247.5"/>
</g>
<!-- MakerRoutingModule&#45;&gt;RouterModule  -->
<g id="edge58" class="edge">
<title>MakerRoutingModule&#45;&gt;RouterModule </title>
<path fill="none" stroke="black" stroke-dasharray="5,2" d="M5417.68,-198.04C5417.68,-205.75 5417.68,-213 5417.68,-213 5417.68,-213 5065.86,-213 5065.86,-213 5065.86,-213 5065.86,-208.04 5065.86,-208.04"/>
<polygon fill="black" stroke="black" points="5069.36,-208.04 5065.86,-198.04 5062.36,-208.04 5069.36,-208.04"/>
</g>
<!-- MakerRoutingModule&#45;&gt;MakerModule -->
<g id="edge55" class="edge">
<title>MakerRoutingModule&#45;&gt;MakerModule</title>
<path fill="none" stroke="black" d="M5493.01,-198.11C5493.01,-198.11 5493.01,-216.99 5493.01,-216.99"/>
<polygon fill="black" stroke="black" points="5489.51,-216.99 5493.01,-226.99 5496.51,-216.99 5489.51,-216.99"/>
</g>
</g>
</svg>
